<svg xmlns="http://www.w3.org/2000/svg" xmlns:xlink="http://www.w3.org/1999/xlink" contentStyleType="text/css" data-diagram-type="DESCRIPTION" height="453px" preserveAspectRatio="none" style="width:748px;height:453px;background:#1B1B1B;" version="1.1" viewBox="0 0 748 453" width="748px" zoomAndPan="magnify"><defs/><g><rect fill="#1B1B1B" height="453" style="stroke:none;stroke-width:1;" width="748" x="0" y="0"/><!--cluster Gesti?n de Turnos--><g class="cluster" data-entity="Gesti&#243;n de Turnos" data-source-line="8" data-uid="ent0004" id="cluster_Gesti&#243;n de Turnos"><rect fill="none" height="440" rx="2.5" ry="2.5" style="stroke:#E7E7E7;stroke-width:1;" width="591.36" x="150.82" y="7"/><text fill="#FFFFFF" font-family="sans-serif" font-size="14" font-weight="bold" lengthAdjust="spacing" textLength="143.999" x="374.5005" y="21.9951">Gesti&#243;n de Turnos</text></g><!--entity RT--><g class="entity" data-entity="RT" data-source-line="10" data-uid="ent0005" id="entity_RT"><ellipse cx="271.7186" cy="58.0017" fill="#313139" rx="69.3086" ry="16.2617" style="stroke:#E7E7E7;stroke-width:0.5;"/><text fill="#FFFFFF" font-family="sans-serif" font-size="14" lengthAdjust="spacing" textLength="104.6309" x="219.4032" y="62.6502">Reservar turno</text></g><!--entity GN--><g class="entity" data-entity="GN" data-source-line="11" data-uid="ent0006" id="entity_GN"><ellipse cx="613.9134" cy="144.0047" fill="#313139" rx="112.2734" ry="24.8547" style="stroke:#E7E7E7;stroke-width:0.5;"/><text fill="#FFFFFF" font-family="sans-serif" font-size="14" lengthAdjust="spacing" textLength="202.7881" x="512.5194" y="148.6531">Generar n&#250;mero de atenci&#243;n</text></g><!--entity SMS--><g class="entity" data-entity="SMS" data-source-line="12" data-uid="ent0007" id="entity_SMS"><ellipse cx="613.9075" cy="62.9955" fill="#313139" rx="94.5275" ry="21.3055" style="stroke:#E7E7E7;stroke-width:0.5;"/><text fill="#FFFFFF" font-family="sans-serif" font-size="14" lengthAdjust="spacing" textLength="163.9189" x="531.948" y="67.6439">Enviar notificaci&#243;n SMS</text></g><!--entity CE--><g class="entity" data-entity="CE" data-source-line="13" data-uid="ent0008" id="entity_CE"><ellipse cx="271.7183" cy="133.0017" fill="#313139" rx="104.9083" ry="23.3817" style="stroke:#E7E7E7;stroke-width:0.5;"/><text fill="#FFFFFF" font-family="sans-serif" font-size="14" lengthAdjust="spacing" textLength="186.8193" x="178.3086" y="137.6501">Consultar estado del turno</text></g><!--entity CT--><g class="entity" data-entity="CT" data-source-line="14" data-uid="ent0009" id="entity_CT"><ellipse cx="271.7193" cy="208.0039" fill="#313139" rx="68.9693" ry="16.1939" style="stroke:#E7E7E7;stroke-width:0.5;"/><text fill="#FFFFFF" font-family="sans-serif" font-size="14" lengthAdjust="spacing" textLength="103.7695" x="219.8346" y="212.6523">Cancelar turno</text></g><!--entity VT--><g class="entity" data-entity="VT" data-source-line="16" data-uid="ent0010" id="entity_VT"><ellipse cx="271.7179" cy="278.0036" fill="#313139" rx="81.7679" ry="18.7536" style="stroke:#E7E7E7;stroke-width:0.5;"/><text fill="#FFFFFF" font-family="sans-serif" font-size="14" lengthAdjust="spacing" textLength="134.8252" x="204.3053" y="282.652">Ver siguiente turno</text></g><!--entity AC--><g class="entity" data-entity="AC" data-source-line="17" data-uid="ent0011" id="entity_AC"><ellipse cx="271.7162" cy="347.9952" fill="#313139" rx="70.3762" ry="16.4752" style="stroke:#E7E7E7;stroke-width:0.5;"/><text fill="#FFFFFF" font-family="sans-serif" font-size="14" lengthAdjust="spacing" textLength="107.3242" x="218.0541" y="352.6437">Atender cliente</text></g><!--entity FT--><g class="entity" data-entity="FT" data-source-line="18" data-uid="ent0012" id="entity_FT"><ellipse cx="271.7231" cy="414.9966" fill="#313139" rx="67.8331" ry="15.9666" style="stroke:#E7E7E7;stroke-width:0.5;"/><text fill="#FFFFFF" font-family="sans-serif" font-size="14" lengthAdjust="spacing" textLength="100.8643" x="221.2909" y="419.645">Finalizar turno</text></g><!--entity Cliente--><g class="entity" data-entity="Cliente" data-source-line="5" data-uid="ent0002" id="entity_Cliente"><ellipse cx="54.91" cy="110.85" fill="#313139" rx="16" ry="16" style="stroke:#E7E7E7;stroke-width:0.5;"/><path d="M54.91,130.85 C58.91,130.85 61.91,130.85 65.91,126.85 C73.91,126.85 81.91,134.85 81.91,142.85 L81.91,146.85 C81.91,150.85 77.91,154.85 73.91,154.85 L35.91,154.85 C31.91,154.85 27.91,150.85 27.91,146.85 L27.91,142.85 C27.91,134.85 35.91,126.85 43.91,126.85 C47.91,130.85 50.91,130.85 54.91,130.85" fill="#313139" style="stroke:#E7E7E7;stroke-width:0.5;"/><text fill="#FFFFFF" font-family="sans-serif" font-size="14" lengthAdjust="spacing" textLength="49.1436" x="30.3382" y="168.3451">Cliente</text></g><!--entity Recepcionista--><g class="entity" data-entity="Recepcionista" data-source-line="6" data-uid="ent0003" id="entity_Recepcionista"><ellipse cx="54.9077" cy="325.85" fill="#313139" rx="16" ry="16" style="stroke:#E7E7E7;stroke-width:0.5;"/><path d="M54.9077,345.85 C58.9077,345.85 61.9077,345.85 65.9077,341.85 C73.9077,341.85 81.9077,349.85 81.9077,357.85 L81.9077,361.85 C81.9077,365.85 77.9077,369.85 73.9077,369.85 L35.9077,369.85 C31.9077,369.85 27.9077,365.85 27.9077,361.85 L27.9077,357.85 C27.9077,349.85 35.9077,341.85 43.9077,341.85 C47.9077,345.85 50.9077,345.85 54.9077,345.85" fill="#313139" style="stroke:#E7E7E7;stroke-width:0.5;"/><text fill="#FFFFFF" font-family="sans-serif" font-size="14" lengthAdjust="spacing" textLength="97.8154" x="6" y="383.3451">Recepcionista</text></g><!--link Cliente to RT--><g class="link" data-entity-1="Cliente" data-entity-2="RT" data-source-line="20" data-uid="lnk13" id="link_Cliente_RT"><path d="M82.77,118.78 C99.67,110.22 122.13,99.56 142.82,92 C167.85,82.85 190.6323,76.4375 214.4323,70.6075" fill="none" id="Cliente-to-RT" style="stroke:#E7E7E7;stroke-width:1;"/><polygon fill="#E7E7E7" points="220.26,69.18,210.5668,67.4362,215.4036,70.3696,212.4701,75.2064,220.26,69.18" style="stroke:#E7E7E7;stroke-width:1;"/></g><!--link RT to GN--><g class="link" data-entity-1="RT" data-entity-2="GN" data-source-line="21" data-uid="lnk14" id="link_RT_GN"><path d="M320.02,69.96 C376.62,84.27 466.233,106.9194 532.723,123.7294" fill="none" id="RT-to-GN" style="stroke:#E7E7E7;stroke-width:1;"/><polygon fill="#E7E7E7" points="538.54,125.2,530.795,119.116,533.6925,123.9745,528.8341,126.872,538.54,125.2" style="stroke:#E7E7E7;stroke-width:1;"/><text fill="#FFFFFF" font-family="sans-serif" font-size="13" lengthAdjust="spacing" textLength="63.0068" x="407.63" y="90.0669">&#171;include&#187;</text></g><!--link RT to SMS--><g class="link" data-entity-1="RT" data-entity-2="SMS" data-source-line="22" data-uid="lnk15" id="link_RT_SMS"><path d="M341.16,59.01 C392.28,59.76 456.7607,60.7017 513.1307,61.5317" fill="none" id="RT-to-SMS" style="stroke:#E7E7E7;stroke-width:1;"/><polygon fill="#E7E7E7" points="519.13,61.62,510.1899,57.4879,514.1305,61.5464,510.0721,65.4871,519.13,61.62" style="stroke:#E7E7E7;stroke-width:1;"/><text fill="#FFFFFF" font-family="sans-serif" font-size="13" lengthAdjust="spacing" textLength="61.1851" x="408.63" y="57.0669">&#171;extend&#187;</text></g><!--link Cliente to CE--><g class="link" data-entity-1="Cliente" data-entity-2="CE" data-source-line="23" data-uid="lnk16" id="link_Cliente_CE"><path d="M82.68,133 C104.05,133 129.45,133 160.5,133" fill="none" id="Cliente-to-CE" style="stroke:#E7E7E7;stroke-width:1;"/><polygon fill="#E7E7E7" points="166.5,133,157.5,129,161.5,133,157.5,137,166.5,133" style="stroke:#E7E7E7;stroke-width:1;"/></g><!--link Cliente to CT--><g class="link" data-entity-1="Cliente" data-entity-2="CT" data-source-line="24" data-uid="lnk17" id="link_Cliente_CT"><path d="M82.77,147.22 C99.67,155.78 122.13,166.44 142.82,174 C167.85,183.15 190.6323,189.5625 214.4323,195.3925" fill="none" id="Cliente-to-CT" style="stroke:#E7E7E7;stroke-width:1;"/><polygon fill="#E7E7E7" points="220.26,196.82,212.4701,190.7936,215.4036,195.6304,210.5668,198.5638,220.26,196.82" style="stroke:#E7E7E7;stroke-width:1;"/></g><!--link Recepcionista to VT--><g class="link" data-entity-1="Recepcionista" data-entity-2="VT" data-source-line="26" data-uid="lnk18" id="link_Recepcionista_VT"><path d="M103.87,328.26 C116.45,323.35 130.07,318.28 142.82,314 C166.66,306 187.5908,299.8666 210.4308,293.6466" fill="none" id="Recepcionista-to-VT" style="stroke:#E7E7E7;stroke-width:1;"/><polygon fill="#E7E7E7" points="216.22,292.07,206.4852,290.5754,211.3957,293.3838,208.5873,298.2943,216.22,292.07" style="stroke:#E7E7E7;stroke-width:1;"/></g><!--link Recepcionista to AC--><g class="link" data-entity-1="Recepcionista" data-entity-2="AC" data-source-line="27" data-uid="lnk19" id="link_Recepcionista_AC"><path d="M104.12,348 C132.69,348 163.4,348 195.08,348" fill="none" id="Recepcionista-to-AC" style="stroke:#E7E7E7;stroke-width:1;"/><polygon fill="#E7E7E7" points="201.08,348,192.08,344,196.08,348,192.08,352,201.08,348" style="stroke:#E7E7E7;stroke-width:1;"/></g><!--link Recepcionista to FT--><g class="link" data-entity-1="Recepcionista" data-entity-2="FT" data-source-line="28" data-uid="lnk20" id="link_Recepcionista_FT"><path d="M104.26,368.11 C116.71,372.96 130.17,377.91 142.82,382 C168.56,390.32 191.9203,396.5708 215.9103,402.4108" fill="none" id="Recepcionista-to-FT" style="stroke:#E7E7E7;stroke-width:1;"/><polygon fill="#E7E7E7" points="221.74,403.83,213.9415,397.8148,216.8819,402.6474,212.0493,405.5878,221.74,403.83" style="stroke:#E7E7E7;stroke-width:1;"/></g><!--SRC=[PP7FYi8m4CRlUOh1ko-mY215UreFjNWVqh4x62UIfBf_sAVQsrvziKr7OLE4GfhvVdpppSJH8K7o4BX_Iz1n89lOYub7bZC6FC4PxH5xsgKFHp3AABsZ0a2RVBZBUANeJsICrg1oJ9BeSMl8qjbcSuu9ZNdumgoccFZs8z0Hj4CG7sVmPG3oDqIo63FJKAHmmG1f16Q04Pgs16eI2bcNs- -9WX-zC97OqLZnUblYQxdmIFl41xQe6EnUTuhcisGhBt5mAUCvA7QZjojoLEi9Z6B9JO9MhIc9FGM8t0-wcWBRJ-PPvV1T9krzXKgigfBOiA3ZpqchZRPwh1tcy-LzIqsh__KMNc2nOB5kw6Yv_5Von2hH-zXMbT94HvmKjC_aGRMkCpoNDVXpEQVz_WC0]--></g></svg>