<svg xmlns="http://www.w3.org/2000/svg" xmlns:xlink="http://www.w3.org/1999/xlink" contentStyleType="text/css" data-diagram-type="DESCRIPTION" height="610px" preserveAspectRatio="none" style="width:758px;height:610px;background:#1B1B1B;" version="1.1" viewBox="0 0 758 610" width="758px" zoomAndPan="magnify"><defs/><g><rect fill="#1B1B1B" height="610" style="stroke:none;stroke-width:1;" width="758" x="0" y="0"/><!--cluster Cliente Web\n(Front-End)--><g class="cluster" data-entity="Cliente Web\n(Front-End)" data-source-line="4" data-uid="ent0002" id="cluster_Cliente Web\n(Front-End)"><polygon fill="none" points="240,16,250,6,411,6,411,104.3,401,114.3,240,114.3,240,16" style="stroke:#E7E7E7;stroke-width:1;"/><line style="stroke:#E7E7E7;stroke-width:1;" x1="401" x2="411" y1="16" y2="6"/><line style="stroke:#E7E7E7;stroke-width:1;" x1="240" x2="401" y1="16" y2="16"/><line style="stroke:#E7E7E7;stroke-width:1;" x1="401" x2="401" y1="16" y2="114.3"/><text fill="#FFFFFF" font-family="sans-serif" font-size="14" font-weight="bold" lengthAdjust="spacing" textLength="95.3545" x="273.8228" y="31.9951">Cliente Web</text><text fill="#FFFFFF" font-family="sans-serif" font-size="14" font-weight="bold" lengthAdjust="spacing" textLength="90.9043" x="276.0479" y="48.292">(Front-End)</text></g><!--cluster Servidor de Aplicaciones\n(Back-End)--><g class="cluster" data-entity="Servidor de Aplicaciones\n(Back-End)" data-source-line="9" data-uid="ent0004" id="cluster_Servidor de Aplicaciones\n(Back-End)"><polygon fill="none" points="16,173.3,26,163.3,529,163.3,529,421.39,519,431.39,16,431.39,16,173.3" style="stroke:#E7E7E7;stroke-width:1;"/><line style="stroke:#E7E7E7;stroke-width:1;" x1="519" x2="529" y1="173.3" y2="163.3"/><line style="stroke:#E7E7E7;stroke-width:1;" x1="16" x2="519" y1="173.3" y2="173.3"/><line style="stroke:#E7E7E7;stroke-width:1;" x1="519" x2="519" y1="173.3" y2="431.39"/><text fill="#FFFFFF" font-family="sans-serif" font-size="14" font-weight="bold" lengthAdjust="spacing" textLength="194.9268" x="171.0366" y="189.2951">Servidor de Aplicaciones</text><text fill="#FFFFFF" font-family="sans-serif" font-size="14" font-weight="bold" lengthAdjust="spacing" textLength="85.8867" x="225.5566" y="205.592">(Back-End)</text></g><!--cluster Base de Datos\n(PostgreSQL)--><g class="cluster" data-entity="Base de Datos\n(PostgreSQL)" data-source-line="18" data-uid="ent0009" id="cluster_Base de Datos\n(PostgreSQL)"><polygon fill="none" points="553,328.6,563,318.6,741,318.6,741,425.89,731,435.89,553,435.89,553,328.6" style="stroke:#E7E7E7;stroke-width:1;"/><line style="stroke:#E7E7E7;stroke-width:1;" x1="731" x2="741" y1="328.6" y2="318.6"/><line style="stroke:#E7E7E7;stroke-width:1;" x1="553" x2="731" y1="328.6" y2="328.6"/><line style="stroke:#E7E7E7;stroke-width:1;" x1="731" x2="731" y1="328.6" y2="435.89"/><text fill="#FFFFFF" font-family="sans-serif" font-size="14" font-weight="bold" lengthAdjust="spacing" textLength="112.9229" x="586.5386" y="344.5951">Base de Datos</text><text fill="#FFFFFF" font-family="sans-serif" font-size="14" font-weight="bold" lengthAdjust="spacing" textLength="105.0273" x="590.4863" y="360.892">(PostgreSQL)</text></g><!--cluster Servicio de Notificaciones SMS\n(API externa)--><g class="cluster" data-entity="Servicio de Notificaciones SMS\n(API externa)" data-source-line="23" data-uid="ent0011" id="cluster_Servicio de Notificaciones SMS\n(API externa)"><polygon fill="none" points="292,494.89,302,484.89,611,484.89,611,583.19,601,593.19,292,593.19,292,494.89" style="stroke:#E7E7E7;stroke-width:1;"/><line style="stroke:#E7E7E7;stroke-width:1;" x1="601" x2="611" y1="494.89" y2="484.89"/><line style="stroke:#E7E7E7;stroke-width:1;" x1="292" x2="601" y1="494.89" y2="494.89"/><line style="stroke:#E7E7E7;stroke-width:1;" x1="601" x2="601" y1="494.89" y2="593.19"/><text fill="#FFFFFF" font-family="sans-serif" font-size="14" font-weight="bold" lengthAdjust="spacing" textLength="243.332" x="325.834" y="510.8851">Servicio de Notificaciones SMS</text><text fill="#FFFFFF" font-family="sans-serif" font-size="14" font-weight="bold" lengthAdjust="spacing" textLength="105.0068" x="394.9966" y="527.182">(API externa)</text></g><!--entity Navegador--><g class="entity" data-entity="Navegador" data-source-line="5" data-uid="ent0003" id="entity_Navegador"><rect fill="#313139" height="36.2969" rx="2.5" ry="2.5" style="stroke:#E7E7E7;stroke-width:0.5;" width="96.624" x="276.69" y="62"/><text fill="#FFFFFF" font-family="sans-serif" font-size="14" lengthAdjust="spacing" textLength="76.624" x="286.69" y="84.9951">Navegador</text></g><!--entity Aplicaci?n Tunom?tico--><g class="entity" data-entity="Aplicaci&#243;n Tunom&#225;tico" data-source-line="11" data-uid="ent0005" id="entity_Aplicaci&#243;n Tunom&#225;tico"><rect fill="#313139" height="36.2969" rx="2.5" ry="2.5" style="stroke:#E7E7E7;stroke-width:0.5;" width="178.7168" x="235.64" y="219.3"/><text fill="#FFFFFF" font-family="sans-serif" font-size="14" lengthAdjust="spacing" textLength="158.7168" x="245.64" y="242.2951">Aplicaci&#243;n Tunom&#225;tico</text></g><!--entity GestorTurnos--><g class="entity" data-entity="GestorTurnos" data-source-line="12" data-uid="ent0006" id="entity_GestorTurnos"><rect fill="#313139" height="36.2969" rx="2.5" ry="2.5" style="stroke:#E7E7E7;stroke-width:0.5;" width="114.4795" x="31.76" y="379.1"/><text fill="#FFFFFF" font-family="sans-serif" font-size="14" lengthAdjust="spacing" textLength="94.4795" x="41.76" y="402.0951">GestorTurnos</text></g><!--entity ConfiguracionSistema--><g class="entity" data-entity="ConfiguracionSistema" data-source-line="13" data-uid="ent0007" id="entity_ConfiguracionSistema"><rect fill="#313139" height="36.2969" rx="2.5" ry="2.5" style="stroke:#E7E7E7;stroke-width:0.5;" width="173.542" x="181.23" y="379.1"/><text fill="#FFFFFF" font-family="sans-serif" font-size="14" lengthAdjust="spacing" textLength="153.542" x="191.23" y="402.0951">ConfiguracionSistema</text></g><!--entity AdaptadorSMS--><g class="entity" data-entity="AdaptadorSMS" data-source-line="14" data-uid="ent0008" id="entity_AdaptadorSMS"><rect fill="#313139" height="36.2969" rx="2.5" ry="2.5" style="stroke:#E7E7E7;stroke-width:0.5;" width="123.0586" x="389.47" y="379.1"/><text fill="#FFFFFF" font-family="sans-serif" font-size="14" lengthAdjust="spacing" textLength="103.0586" x="399.47" y="402.0951">AdaptadorSMS</text></g><!--entity DB Turnos--><g class="entity" data-entity="DB Turnos" data-source-line="19" data-uid="ent0010" id="entity_DB Turnos"><path d="M568.63,384.6 C568.63,374.6 615.004,374.6 615.004,374.6 C615.004,374.6 661.378,374.6 661.378,384.6 L661.378,409.8969 C661.378,419.8969 615.004,419.8969 615.004,419.8969 C615.004,419.8969 568.63,419.8969 568.63,409.8969 L568.63,384.6" fill="#313139" style="stroke:#E7E7E7;stroke-width:0.5;"/><path d="M568.63,384.6 C568.63,394.6 615.004,394.6 615.004,394.6 C615.004,394.6 661.378,394.6 661.378,384.6" fill="none" style="stroke:#E7E7E7;stroke-width:0.5;"/><text fill="#FFFFFF" font-family="sans-serif" font-size="14" lengthAdjust="spacing" textLength="72.748" x="578.63" y="411.5951">DB Turnos</text></g><!--entity ServicioSMSExterno--><g class="entity" data-entity="ServicioSMSExterno" data-source-line="24" data-uid="ent0012" id="entity_ServicioSMSExterno"><rect fill="#313139" height="36.2969" rx="2.5" ry="2.5" style="stroke:#E7E7E7;stroke-width:0.5;" width="159.8633" x="371.07" y="540.89"/><text fill="#FFFFFF" font-family="sans-serif" font-size="14" lengthAdjust="spacing" textLength="139.8633" x="381.07" y="563.8851">ServicioSMSExterno</text></g><!--link Navegador to Aplicaci?n Tunom?tico--><g class="link" data-entity-1="Navegador" data-entity-2="Aplicaci&#243;n Tunom&#225;tico" data-source-line="28" data-uid="lnk13" id="link_Navegador_Aplicaci&#243;n Tunom&#225;tico"><path d="M325,98.66 C325,128.65 325,183.46 325,213.24" fill="none" id="Navegador-to-Aplicaci&#243;n Tunom&#225;tico" style="stroke:#E7E7E7;stroke-width:1;"/><polygon fill="#E7E7E7" points="325,219.24,329,210.24,325,214.24,321,210.24,325,219.24" style="stroke:#E7E7E7;stroke-width:1;"/><text fill="#FFFFFF" font-family="sans-serif" font-size="13" lengthAdjust="spacing" textLength="81.2119" x="326" y="143.3669">HTTP (REST)</text></g><!--link Aplicaci?n Tunom?tico to GestorTurnos--><g class="link" data-entity-1="Aplicaci&#243;n Tunom&#225;tico" data-entity-2="GestorTurnos" data-source-line="29" data-uid="lnk14" id="link_Aplicaci&#243;n Tunom&#225;tico_GestorTurnos"><path d="M268.38,256.08 C235.71,268.06 195.07,286.19 164,310.6 C138.51,330.62 118.4512,355.3038 104.7712,373.9338" fill="none" id="Aplicaci&#243;n Tunom&#225;tico-to-GestorTurnos" style="stroke:#E7E7E7;stroke-width:1;"/><polygon fill="#E7E7E7" points="101.22,378.77,109.771,373.8832,104.1793,374.7398,103.3227,369.1482,101.22,378.77" style="stroke:#E7E7E7;stroke-width:1;"/><text fill="#FFFFFF" font-family="sans-serif" font-size="13" lengthAdjust="spacing" textLength="24.2544" x="202" y="298.6669">Usa</text></g><!--link Aplicaci?n Tunom?tico to ConfiguracionSistema--><g class="link" data-entity-1="Aplicaci&#243;n Tunom&#225;tico" data-entity-2="ConfiguracionSistema" data-source-line="30" data-uid="lnk15" id="link_Aplicaci&#243;n Tunom&#225;tico_ConfiguracionSistema"><path d="M282.27,255.88 C269.95,263.14 257.96,272.91 251,285.6 C234.64,315.42 246.087,350.717 256.557,373.527" fill="none" id="Aplicaci&#243;n Tunom&#225;tico-to-ConfiguracionSistema" style="stroke:#E7E7E7;stroke-width:1;"/><polygon fill="#E7E7E7" points="259.06,378.98,258.9409,369.1319,256.9742,374.4358,251.6702,372.4692,259.06,378.98" style="stroke:#E7E7E7;stroke-width:1;"/><text fill="#FFFFFF" font-family="sans-serif" font-size="13" lengthAdjust="spacing" textLength="100.8706" x="252" y="298.6669">Consulta config</text></g><!--link Aplicaci?n Tunom?tico to AdaptadorSMS--><g class="link" data-entity-1="Aplicaci&#243;n Tunom&#225;tico" data-entity-2="AdaptadorSMS" data-source-line="31" data-uid="lnk16" id="link_Aplicaci&#243;n Tunom&#225;tico_AdaptadorSMS"><path d="M338.97,255.94 C363.19,286.27 408.9667,343.6009 433.2267,373.9909" fill="none" id="Aplicaci&#243;n Tunom&#225;tico-to-AdaptadorSMS" style="stroke:#E7E7E7;stroke-width:1;"/><polygon fill="#E7E7E7" points="436.97,378.68,434.4812,369.1508,433.8506,374.7724,428.229,374.1418,436.97,378.68" style="stroke:#E7E7E7;stroke-width:1;"/><text fill="#FFFFFF" font-family="sans-serif" font-size="13" lengthAdjust="spacing" textLength="115.0132" x="375" y="298.6669">Env&#237;a notificaci&#243;n</text></g><!--link Aplicaci?n Tunom?tico to DB Turnos--><g class="link" data-entity-1="Aplicaci&#243;n Tunom&#225;tico" data-entity-2="DB Turnos" data-source-line="32" data-uid="lnk17" id="link_Aplicaci&#243;n Tunom&#225;tico_DB Turnos"><path d="M414.49,254.88 C442.51,262.06 472.9,272.02 499,285.6 C540.73,307.3 574.1587,343.8873 594.6187,369.4273" fill="none" id="Aplicaci&#243;n Tunom&#225;tico-to-DB Turnos" style="stroke:#E7E7E7;stroke-width:1;"/><polygon fill="#E7E7E7" points="598.37,374.11,595.8649,364.5851,595.2439,370.2077,589.6212,369.5868,598.37,374.11" style="stroke:#E7E7E7;stroke-width:1;"/><text fill="#FFFFFF" font-family="sans-serif" font-size="13" lengthAdjust="spacing" textLength="74.9658" x="525" y="298.6669">JDBC / ORM</text></g><!--link AdaptadorSMS to ServicioSMSExterno--><g class="link" data-entity-1="AdaptadorSMS" data-entity-2="ServicioSMSExterno" data-source-line="33" data-uid="lnk18" id="link_AdaptadorSMS_ServicioSMSExterno"><path d="M451,415.65 C451,446.39 451,503.93 451,534.66" fill="none" id="AdaptadorSMS-to-ServicioSMSExterno" style="stroke:#E7E7E7;stroke-width:1;"/><polygon fill="#E7E7E7" points="451,540.66,455,531.66,451,535.66,447,531.66,451,540.66" style="stroke:#E7E7E7;stroke-width:1;"/><text fill="#FFFFFF" font-family="sans-serif" font-size="13" lengthAdjust="spacing" textLength="58.1382" x="452" y="464.9569">REST API</text></g><!--SRC=[ZL99JiD04Bpx5IrVI0uHToIGifXD98JOY0kNZjsnHh5dh9bn58Hu30_Wn1FoCTecSUIGOC_9IrLDTNMPfP0PQamXL6cc94dhsxU4G5DeKSO9ESuPN1uxC56HWeWI62Q2UNGSzdiSgI82TuTyeVchx5nh9MtFar7NXNS7zXPWWYkACLBQ-MXnlqzw9HZCBz3F4X5YA5Z7j31qYihk1XWkAtCrT-uEkVcM4EHIfPjFAqBbrb4tPApIGQwbCWU_XaekH9phyZPV64if7a3w4MQsYC0V-swB62116A2Xud64LhMPleRdaQVAs5YJ__ImtKY45kS5o1qDO3T92ozbh3mRU6jBp6gxYOB2BnDbnMA_Haw0pVMdTq2b7FxfIyLcwFRAVtro_hHkxaXLG-Zrhawl7IxWDWYcq9bvVj1rJkDAbLejcFfii8boj2vCvUycJono4WMWIQPMAQPxShNvGf1LsanhqjZtW0NkHuCXdCFZREmSY9VO8qjXKX4Iy39_0000]--></g></svg>