<svg xmlns="http://www.w3.org/2000/svg" xmlns:xlink="http://www.w3.org/1999/xlink" contentStyleType="text/css" data-diagram-type="CLASS" height="1005px" preserveAspectRatio="none" style="width:1760px;height:1005px;background:#1B1B1B;" version="1.1" viewBox="0 0 1760 1005" width="1760px" zoomAndPan="magnify"><defs/><g><rect fill="#1B1B1B" height="1005" style="stroke:none;stroke-width:1;" width="1760" x="0" y="0"/><!--cluster UI--><g class="cluster" data-entity="UI" data-source-line="2" data-uid="ent0002" id="cluster_UI"><path d="M8.5,6 L26.0771,6 A3.75,3.75 0 0 1 28.5771,8.5 L35.5771,28.2969 L607.5,28.2969 A2.5,2.5 0 0 1 610,30.7969 L610,183.99 A2.5,2.5 0 0 1 607.5,186.49 L8.5,186.49 A2.5,2.5 0 0 1 6,183.99 L6,8.5 A2.5,2.5 0 0 1 8.5,6" fill="none" style="stroke:#FFFFFF;stroke-width:1.5;"/><line style="stroke:#FFFFFF;stroke-width:1.5;" x1="6" x2="35.5771" y1="28.2969" y2="28.2969"/><text fill="#FFFFFF" font-family="sans-serif" font-size="14" font-weight="bold" lengthAdjust="spacing" textLength="16.5771" x="10" y="20.9951">UI</text></g><!--cluster Servidor de Aplicaciones--><g class="cluster" data-entity="Servidor de Aplicaciones" data-source-line="20" data-uid="ent0005" id="cluster_Servidor de Aplicaciones"><polygon fill="none" points="158,220.49,168,210.49,1265,210.49,1265,705.57,1255,715.57,158,715.57,158,220.49" style="stroke:#E7E7E7;stroke-width:1;"/><line style="stroke:#E7E7E7;stroke-width:1;" x1="1255" x2="1265" y1="220.49" y2="210.49"/><line style="stroke:#E7E7E7;stroke-width:1;" x1="158" x2="1255" y1="220.49" y2="220.49"/><line style="stroke:#E7E7E7;stroke-width:1;" x1="1255" x2="1255" y1="220.49" y2="715.57"/><text fill="#FFFFFF" font-family="sans-serif" font-size="14" font-weight="bold" lengthAdjust="spacing" textLength="194.9268" x="610.0366" y="236.4851">Servidor de Aplicaciones</text></g><!--cluster Dominio--><g class="cluster" data-entity="Dominio" data-source-line="21" data-uid="ent0006" id="cluster_Dominio"><path d="M184.5,278.92 L250.5098,278.92 A3.75,3.75 0 0 1 253.0098,281.42 L260.0098,301.2169 L614.5,301.2169 A2.5,2.5 0 0 1 617,303.7169 L617,689.07 A2.5,2.5 0 0 1 614.5,691.57 L184.5,691.57 A2.5,2.5 0 0 1 182,689.07 L182,281.42 A2.5,2.5 0 0 1 184.5,278.92" fill="none" style="stroke:#FFFFFF;stroke-width:1.5;"/><line style="stroke:#FFFFFF;stroke-width:1.5;" x1="182" x2="260.0098" y1="301.2169" y2="301.2169"/><text fill="#FFFFFF" font-family="sans-serif" font-size="14" font-weight="bold" lengthAdjust="spacing" textLength="65.0098" x="186" y="293.9151">Dominio</text></g><!--cluster Configuraci?n--><g class="cluster" data-entity="Configuraci&#243;n" data-source-line="44" data-uid="ent0010" id="cluster_Configuraci&#243;n"><path d="M643.5,258.49 L754.2715,258.49 A3.75,3.75 0 0 1 756.7715,260.99 L763.7715,280.7869 L956.5,280.7869 A2.5,2.5 0 0 1 959,283.2869 L959,461.03 A2.5,2.5 0 0 1 956.5,463.53 L643.5,463.53 A2.5,2.5 0 0 1 641,461.03 L641,260.99 A2.5,2.5 0 0 1 643.5,258.49" fill="none" style="stroke:#FFFFFF;stroke-width:1.5;"/><line style="stroke:#FFFFFF;stroke-width:1.5;" x1="641" x2="763.7715" y1="280.7869" y2="280.7869"/><text fill="#FFFFFF" font-family="sans-serif" font-size="14" font-weight="bold" lengthAdjust="spacing" textLength="109.7715" x="645" y="273.4851">Configuraci&#243;n</text></g><!--cluster Movimientos--><g class="cluster" data-entity="Movimientos" data-source-line="55" data-uid="ent0012" id="cluster_Movimientos"><path d="M985.5,282.93 L1087.4668,282.93 A3.75,3.75 0 0 1 1089.9668,285.43 L1096.9668,305.2269 L1238.5,305.2269 A2.5,2.5 0 0 1 1241,307.7269 L1241,436.59 A2.5,2.5 0 0 1 1238.5,439.09 L985.5,439.09 A2.5,2.5 0 0 1 983,436.59 L983,285.43 A2.5,2.5 0 0 1 985.5,282.93" fill="none" style="stroke:#FFFFFF;stroke-width:1.5;"/><line style="stroke:#FFFFFF;stroke-width:1.5;" x1="983" x2="1096.9668" y1="305.2269" y2="305.2269"/><text fill="#FFFFFF" font-family="sans-serif" font-size="14" font-weight="bold" lengthAdjust="spacing" textLength="100.9668" x="987" y="297.9251">Movimientos</text></g><!--cluster Servicio de Notificaciones SMS--><g class="cluster" data-entity="Servicio de Notificaciones SMS" data-source-line="65" data-uid="ent0014" id="cluster_Servicio de Notificaciones SMS"><polygon fill="none" points="1289,497.53,1299,487.53,1743,487.53,1743,978.73,1733,988.73,1289,988.73,1289,497.53" style="stroke:#E7E7E7;stroke-width:1;"/><line style="stroke:#E7E7E7;stroke-width:1;" x1="1733" x2="1743" y1="497.53" y2="487.53"/><line style="stroke:#E7E7E7;stroke-width:1;" x1="1289" x2="1733" y1="497.53" y2="497.53"/><line style="stroke:#E7E7E7;stroke-width:1;" x1="1733" x2="1733" y1="497.53" y2="988.73"/><text fill="#FFFFFF" font-family="sans-serif" font-size="14" font-weight="bold" lengthAdjust="spacing" textLength="243.332" x="1390.334" y="513.5251">Servicio de Notificaciones SMS</text></g><!--cluster Adaptador--><g class="cluster" data-entity="Adaptador" data-source-line="66" data-uid="ent0015" id="cluster_Adaptador"><path d="M1315.5,535.53 L1399.5088,535.53 A3.75,3.75 0 0 1 1402.0088,538.03 L1409.0088,557.8269 L1716.5,557.8269 A2.5,2.5 0 0 1 1719,560.3269 L1719,962.23 A2.5,2.5 0 0 1 1716.5,964.73 L1315.5,964.73 A2.5,2.5 0 0 1 1313,962.23 L1313,538.03 A2.5,2.5 0 0 1 1315.5,535.53" fill="none" style="stroke:#FFFFFF;stroke-width:1.5;"/><line style="stroke:#FFFFFF;stroke-width:1.5;" x1="1313" x2="1409.0088" y1="557.8269" y2="557.8269"/><text fill="#FFFFFF" font-family="sans-serif" font-size="14" font-weight="bold" lengthAdjust="spacing" textLength="83.0088" x="1317" y="550.5251">Adaptador</text></g><!--class Cliente--><g class="entity" data-entity="Cliente" data-source-line="3" data-uid="ent0003" id="entity_Cliente"><rect fill="#313139" height="129.4844" rx="2.5" ry="2.5" style="stroke:#E7E7E7;stroke-width:0.5;" width="302.3223" x="21.84" y="41"/><ellipse cx="144.1794" cy="57" fill="#2E5233" rx="11" ry="11" style="stroke:#E7E7E7;stroke-width:1;"/><path d="M147.1481,62.6406 Q146.57,62.9375 145.9294,63.0781 Q145.2887,63.2344 144.5856,63.2344 Q142.0856,63.2344 140.7575,61.5938 Q139.445,59.9375 139.445,56.8125 Q139.445,53.6875 140.7575,52.0313 Q142.0856,50.375 144.5856,50.375 Q145.2887,50.375 145.9294,50.5313 Q146.5856,50.6875 147.1481,50.9844 L147.1481,53.7031 Q146.5231,53.125 145.9294,52.8594 Q145.3356,52.5781 144.7106,52.5781 Q143.3669,52.5781 142.6794,53.6563 Q141.9919,54.7188 141.9919,56.8125 Q141.9919,58.9063 142.6794,59.9844 Q143.3669,61.0469 144.7106,61.0469 Q145.3356,61.0469 145.9294,60.7813 Q146.5231,60.5 147.1481,59.9219 L147.1481,62.6406 Z " fill="#FFFFFF"/><text fill="#FFFFFF" font-family="sans-serif" font-size="14" lengthAdjust="spacing" textLength="49.1436" x="164.6794" y="61.8467">Cliente</text><line style="stroke:#E7E7E7;stroke-width:0.5;" x1="22.84" x2="323.1623" y1="73" y2="73"/><rect fill="none" height="6" style="stroke:#C82930;stroke-width:1;" width="6" x="29.84" y="83.6484"/><text fill="#FFFFFF" font-family="sans-serif" font-size="14" lengthAdjust="spacing" textLength="105.2803" x="41.84" y="89.9951">nombre: String</text><rect fill="none" height="6" style="stroke:#C82930;stroke-width:1;" width="6" x="29.84" y="99.9453"/><text fill="#FFFFFF" font-family="sans-serif" font-size="14" lengthAdjust="spacing" textLength="108.4863" x="41.84" y="106.292">telefono: String</text><line style="stroke:#E7E7E7;stroke-width:0.5;" x1="22.84" x2="323.1623" y1="113.5938" y2="113.5938"/><ellipse cx="32.84" cy="127.2422" fill="#84BE84" rx="3" ry="3" style="stroke:#038048;stroke-width:1;"/><text fill="#FFFFFF" font-family="sans-serif" font-size="14" lengthAdjust="spacing" textLength="159.9814" x="41.84" y="130.5889">reservarTurno(): Turno</text><ellipse cx="32.84" cy="143.5391" fill="#84BE84" rx="3" ry="3" style="stroke:#038048;stroke-width:1;"/><text fill="#FFFFFF" font-family="sans-serif" font-size="14" lengthAdjust="spacing" textLength="205.2969" x="41.84" y="146.8857">cancelarTurno(t: Turno): void</text><ellipse cx="32.84" cy="159.8359" fill="#84BE84" rx="3" ry="3" style="stroke:#038048;stroke-width:1;"/><text fill="#FFFFFF" font-family="sans-serif" font-size="14" lengthAdjust="spacing" textLength="276.3223" x="41.84" y="163.1826">consultarEstado(t: Turno): EstadoTurno</text></g><!--class Recepcionista--><g class="entity" data-entity="Recepcionista" data-source-line="11" data-uid="ent0004" id="entity_Recepcionista"><rect fill="#313139" height="113.1875" rx="2.5" ry="2.5" style="stroke:#E7E7E7;stroke-width:0.5;" width="234.9473" x="359.53" y="49.15"/><ellipse cx="423.8459" cy="65.15" fill="#2E5233" rx="11" ry="11" style="stroke:#E7E7E7;stroke-width:1;"/><path d="M426.8147,70.7906 Q426.2365,71.0875 425.5959,71.2281 Q424.9553,71.3844 424.2522,71.3844 Q421.7522,71.3844 420.424,69.7437 Q419.1115,68.0875 419.1115,64.9625 Q419.1115,61.8375 420.424,60.1812 Q421.7522,58.525 424.2522,58.525 Q424.9553,58.525 425.5959,58.6812 Q426.2522,58.8375 426.8147,59.1344 L426.8147,61.8531 Q426.1897,61.275 425.5959,61.0094 Q425.0022,60.7281 424.3772,60.7281 Q423.0334,60.7281 422.3459,61.8062 Q421.6584,62.8687 421.6584,64.9625 Q421.6584,67.0562 422.3459,68.1344 Q423.0334,69.1969 424.3772,69.1969 Q425.0022,69.1969 425.5959,68.9312 Q426.1897,68.65 426.8147,68.0719 L426.8147,70.7906 Z " fill="#FFFFFF"/><text fill="#FFFFFF" font-family="sans-serif" font-size="14" lengthAdjust="spacing" textLength="97.8154" x="444.3459" y="69.9967">Recepcionista</text><line style="stroke:#E7E7E7;stroke-width:0.5;" x1="360.53" x2="593.4773" y1="81.15" y2="81.15"/><rect fill="none" height="6" style="stroke:#C82930;stroke-width:1;" width="6" x="367.53" y="91.7984"/><text fill="#FFFFFF" font-family="sans-serif" font-size="14" lengthAdjust="spacing" textLength="105.2803" x="379.53" y="98.1451">nombre: String</text><line style="stroke:#E7E7E7;stroke-width:0.5;" x1="360.53" x2="593.4773" y1="105.4469" y2="105.4469"/><ellipse cx="370.53" cy="119.0953" fill="#84BE84" rx="3" ry="3" style="stroke:#038048;stroke-width:1;"/><text fill="#FFFFFF" font-family="sans-serif" font-size="14" lengthAdjust="spacing" textLength="189.998" x="379.53" y="122.442">verSiguienteTurno(): Turno</text><ellipse cx="370.53" cy="135.3922" fill="#84BE84" rx="3" ry="3" style="stroke:#038048;stroke-width:1;"/><text fill="#FFFFFF" font-family="sans-serif" font-size="14" lengthAdjust="spacing" textLength="208.9473" x="379.53" y="138.7389">atenderCliente(t: Turno): void</text><ellipse cx="370.53" cy="151.6891" fill="#84BE84" rx="3" ry="3" style="stroke:#038048;stroke-width:1;"/><text fill="#FFFFFF" font-family="sans-serif" font-size="14" lengthAdjust="spacing" textLength="201.3457" x="379.53" y="155.0357">finalizarTurno(t: Turno): void</text></g><!--class Turno--><g class="entity" data-entity="Turno" data-source-line="22" data-uid="ent0007" id="entity_Turno"><rect fill="#313139" height="145.7813" rx="2.5" ry="2.5" style="stroke:#E7E7E7;stroke-width:0.5;" width="229.0479" x="280.48" y="529.79"/><ellipse cx="370.4444" cy="545.79" fill="#2E5233" rx="11" ry="11" style="stroke:#E7E7E7;stroke-width:1;"/><path d="M373.4131,551.4306 Q372.835,551.7275 372.1944,551.8681 Q371.5537,552.0244 370.8506,552.0244 Q368.3506,552.0244 367.0225,550.3838 Q365.71,548.7275 365.71,545.6025 Q365.71,542.4775 367.0225,540.8213 Q368.3506,539.165 370.8506,539.165 Q371.5537,539.165 372.1944,539.3213 Q372.8506,539.4775 373.4131,539.7744 L373.4131,542.4931 Q372.7881,541.915 372.1944,541.6494 Q371.6006,541.3681 370.9756,541.3681 Q369.6319,541.3681 368.9444,542.4463 Q368.2569,543.5088 368.2569,545.6025 Q368.2569,547.6963 368.9444,548.7744 Q369.6319,549.8369 370.9756,549.8369 Q371.6006,549.8369 372.1944,549.5713 Q372.7881,549.29 373.4131,548.7119 L373.4131,551.4306 Z " fill="#FFFFFF"/><text fill="#FFFFFF" font-family="sans-serif" font-size="14" lengthAdjust="spacing" textLength="40.6191" x="390.9444" y="550.6367">Turno</text><line style="stroke:#E7E7E7;stroke-width:0.5;" x1="281.48" x2="508.5279" y1="561.79" y2="561.79"/><rect fill="none" height="6" style="stroke:#C82930;stroke-width:1;" width="6" x="288.48" y="572.4384"/><text fill="#FFFFFF" font-family="sans-serif" font-size="14" lengthAdjust="spacing" textLength="81.7373" x="300.48" y="578.7851">numero: int</text><rect fill="none" height="6" style="stroke:#C82930;stroke-width:1;" width="6" x="288.48" y="588.7353"/><text fill="#FFFFFF" font-family="sans-serif" font-size="14" lengthAdjust="spacing" textLength="149.4404" x="300.48" y="595.082">fechaHora: DateTime</text><rect fill="none" height="6" style="stroke:#C82930;stroke-width:1;" width="6" x="288.48" y="605.0322"/><text fill="#FFFFFF" font-family="sans-serif" font-size="14" lengthAdjust="spacing" textLength="144.874" x="300.48" y="611.3789">estado: EstadoTurno</text><line style="stroke:#E7E7E7;stroke-width:0.5;" x1="281.48" x2="508.5279" y1="618.6806" y2="618.6806"/><ellipse cx="291.48" cy="632.3291" fill="#84BE84" rx="3" ry="3" style="stroke:#038048;stroke-width:1;"/><text fill="#FFFFFF" font-family="sans-serif" font-size="14" lengthAdjust="spacing" textLength="117.25" x="300.48" y="635.6757">getNumero(): int</text><ellipse cx="291.48" cy="648.6259" fill="#84BE84" rx="3" ry="3" style="stroke:#038048;stroke-width:1;"/><text fill="#FFFFFF" font-family="sans-serif" font-size="14" lengthAdjust="spacing" textLength="179.0195" x="300.48" y="651.9726">getEstado(): EstadoTurno</text><ellipse cx="291.48" cy="664.9228" fill="#84BE84" rx="3" ry="3" style="stroke:#038048;stroke-width:1;"/><text fill="#FFFFFF" font-family="sans-serif" font-size="14" lengthAdjust="spacing" textLength="203.0479" x="300.48" y="668.2695">marcarComoAtendido(): void</text></g><!--class EstadoTurno--><g class="entity" data-entity="EstadoTurno" data-source-line="31" data-uid="ent0008" id="entity_EstadoTurno"><rect fill="#313139" height="113.1875" rx="2.5" ry="2.5" style="stroke:#E7E7E7;stroke-width:0.5;" width="120.2793" x="197.86" y="313.92"/><ellipse cx="212.86" cy="329.92" fill="#852D19" rx="11" ry="11" style="stroke:#E7E7E7;stroke-width:1;"/><path d="M216.9694,335.92 L209.2506,335.92 L209.2506,323.5294 L216.9694,323.5294 L216.9694,325.6856 L211.7038,325.6856 L211.7038,328.3575 L216.4694,328.3575 L216.4694,330.5138 L211.7038,330.5138 L211.7038,333.7638 L216.9694,333.7638 L216.9694,335.92 Z " fill="#FFFFFF"/><text fill="#FFFFFF" font-family="sans-serif" font-size="14" lengthAdjust="spacing" textLength="88.2793" x="226.86" y="334.7667">EstadoTurno</text><line style="stroke:#E7E7E7;stroke-width:0.5;" x1="198.86" x2="317.1393" y1="345.92" y2="345.92"/><text fill="#FFFFFF" font-family="sans-serif" font-size="14" lengthAdjust="spacing" textLength="79.3857" x="203.86" y="362.9151">PENDIENTE</text><text fill="#FFFFFF" font-family="sans-serif" font-size="14" lengthAdjust="spacing" textLength="94.0352" x="203.86" y="379.212">EN_PROCESO</text><text fill="#FFFFFF" font-family="sans-serif" font-size="14" lengthAdjust="spacing" textLength="74.1563" x="203.86" y="395.5089">ATENDIDO</text><text fill="#FFFFFF" font-family="sans-serif" font-size="14" lengthAdjust="spacing" textLength="87.623" x="203.86" y="411.8057">CANCELADO</text><line style="stroke:#E7E7E7;stroke-width:0.5;" x1="198.86" x2="317.1393" y1="419.1075" y2="419.1075"/></g><!--class GestorTurnos--><g class="entity" data-entity="GestorTurnos" data-source-line="38" data-uid="ent0009" id="entity_GestorTurnos"><rect fill="#313139" height="80.5938" rx="2.5" ry="2.5" style="stroke:#E7E7E7;stroke-width:0.5;" width="248.5371" x="352.73" y="330.21"/><ellipse cx="425.5088" cy="346.21" fill="#2E5233" rx="11" ry="11" style="stroke:#E7E7E7;stroke-width:1;"/><path d="M428.4776,351.8506 Q427.8994,352.1475 427.2588,352.2881 Q426.6182,352.4444 425.9151,352.4444 Q423.4151,352.4444 422.0869,350.8038 Q420.7744,349.1475 420.7744,346.0225 Q420.7744,342.8975 422.0869,341.2413 Q423.4151,339.585 425.9151,339.585 Q426.6182,339.585 427.2588,339.7413 Q427.9151,339.8975 428.4776,340.1944 L428.4776,342.9131 Q427.8526,342.335 427.2588,342.0694 Q426.6651,341.7881 426.0401,341.7881 Q424.6963,341.7881 424.0088,342.8663 Q423.3213,343.9288 423.3213,346.0225 Q423.3213,348.1163 424.0088,349.1944 Q424.6963,350.2569 426.0401,350.2569 Q426.6651,350.2569 427.2588,349.9913 Q427.8526,349.71 428.4776,349.1319 L428.4776,351.8506 Z " fill="#FFFFFF"/><text fill="#FFFFFF" font-family="sans-serif" font-size="14" lengthAdjust="spacing" textLength="94.4795" x="446.0088" y="351.0567">GestorTurnos</text><line style="stroke:#E7E7E7;stroke-width:0.5;" x1="353.73" x2="600.2671" y1="362.21" y2="362.21"/><line style="stroke:#E7E7E7;stroke-width:0.5;" x1="353.73" x2="600.2671" y1="370.21" y2="370.21"/><ellipse cx="363.73" cy="383.8584" fill="#84BE84" rx="3" ry="3" style="stroke:#038048;stroke-width:1;"/><text fill="#FFFFFF" font-family="sans-serif" font-size="14" lengthAdjust="spacing" textLength="211.5586" x="372.73" y="387.2051">gestionarTurno(t: Turno): void</text><ellipse cx="363.73" cy="400.1553" fill="#84BE84" rx="3" ry="3" style="stroke:#038048;stroke-width:1;"/><text fill="#FFFFFF" font-family="sans-serif" font-size="14" lengthAdjust="spacing" textLength="222.5371" x="372.73" y="403.502">notificarCliente(c: Cliente): void</text></g><!--class ConfiguracionSistema--><g class="entity" data-entity="ConfiguracionSistema" data-source-line="45" data-uid="ent0011" id="entity_ConfiguracionSistema"><rect fill="#313139" height="154.0469" rx="2.5" ry="2.5" style="stroke:#E7E7E7;stroke-width:0.5;" width="286.0254" x="656.99" y="293.49"/><ellipse cx="718.9817" cy="313.6228" fill="#2E5233" rx="11" ry="11" style="stroke:#E7E7E7;stroke-width:1;"/><path d="M721.9504,319.2634 Q721.3723,319.5603 720.7317,319.7009 Q720.0911,319.8572 719.3879,319.8572 Q716.8879,319.8572 715.5598,318.2166 Q714.2473,316.5603 714.2473,313.4353 Q714.2473,310.3103 715.5598,308.6541 Q716.8879,306.9978 719.3879,306.9978 Q720.0911,306.9978 720.7317,307.1541 Q721.3879,307.3103 721.9504,307.6072 L721.9504,310.3259 Q721.3254,309.7478 720.7317,309.4822 Q720.1379,309.2009 719.5129,309.2009 Q718.1692,309.2009 717.4817,310.2791 Q716.7942,311.3416 716.7942,313.4353 Q716.7942,315.5291 717.4817,316.6072 Q718.1692,317.6697 719.5129,317.6697 Q720.1379,317.6697 720.7317,317.4041 Q721.3254,317.1228 721.9504,316.5447 L721.9504,319.2634 Z " fill="#FFFFFF"/><text fill="#000000" font-family="sans-serif" font-size="12" font-style="italic" lengthAdjust="spacing" textLength="71.2266" x="780.6394" y="309.6287">&#171;Singleton&#187;</text><text fill="#FFFFFF" font-family="sans-serif" font-size="14" lengthAdjust="spacing" textLength="153.542" x="739.4817" y="325.4539">ConfiguracionSistema</text><line style="stroke:#E7E7E7;stroke-width:0.5;" x1="657.99" x2="942.0154" y1="333.7556" y2="333.7556"/><rect fill="none" height="6" style="stroke:#C82930;stroke-width:1;" width="6" x="664.99" y="344.4041"/><text fill="#FFFFFF" font-family="sans-serif" font-size="14" lengthAdjust="spacing" textLength="225.873" x="676.99" y="350.7507">instancia: ConfiguracionSistema</text><rect fill="none" height="6" style="stroke:#C82930;stroke-width:1;" width="6" x="664.99" y="360.7009"/><text fill="#FFFFFF" font-family="sans-serif" font-size="14" lengthAdjust="spacing" textLength="173.1406" x="676.99" y="367.0476">modoNotificacion: String</text><rect fill="none" height="6" style="stroke:#C82930;stroke-width:1;" width="6" x="664.99" y="376.9978"/><text fill="#FFFFFF" font-family="sans-serif" font-size="14" lengthAdjust="spacing" textLength="98.3965" x="676.99" y="383.3445">idioma: String</text><line style="stroke:#E7E7E7;stroke-width:0.5;" x1="657.99" x2="942.0154" y1="390.6463" y2="390.6463"/><ellipse cx="667.99" cy="404.2947" fill="#84BE84" rx="3" ry="3" style="stroke:#038048;stroke-width:1;"/><text fill="#FFFFFF" font-family="sans-serif" font-size="14" lengthAdjust="spacing" textLength="260.0254" x="676.99" y="407.6414">getInstancia(): ConfiguracionSistema</text><ellipse cx="667.99" cy="420.5916" fill="#84BE84" rx="3" ry="3" style="stroke:#038048;stroke-width:1;"/><text fill="#FFFFFF" font-family="sans-serif" font-size="14" lengthAdjust="spacing" textLength="205.4951" x="676.99" y="423.9382">getModoNotificacion(): String</text><ellipse cx="667.99" cy="436.8884" fill="#84BE84" rx="3" ry="3" style="stroke:#038048;stroke-width:1;"/><text fill="#FFFFFF" font-family="sans-serif" font-size="14" lengthAdjust="spacing" textLength="256.334" x="676.99" y="440.2351">setModoNotificacion(m: String): void</text></g><!--class PlantillaMovimiento--><g class="entity" data-entity="PlantillaMovimiento" data-source-line="56" data-uid="ent0013" id="entity_PlantillaMovimiento"><rect fill="#313139" height="105.1563" rx="2.5" ry="2.5" style="stroke:#E7E7E7;stroke-width:0.5;" width="226.8604" x="998.57" y="317.93"/><ellipse cx="1039.423" cy="338.0628" fill="#2E5233" rx="11" ry="11" style="stroke:#E7E7E7;stroke-width:1;"/><path d="M1042.3918,343.7034 Q1041.8137,344.0003 1041.173,344.1409 Q1040.5324,344.2972 1039.8293,344.2972 Q1037.3293,344.2972 1036.0012,342.6566 Q1034.6887,341.0003 1034.6887,337.8753 Q1034.6887,334.7503 1036.0012,333.0941 Q1037.3293,331.4378 1039.8293,331.4378 Q1040.5324,331.4378 1041.173,331.5941 Q1041.8293,331.7503 1042.3918,332.0472 L1042.3918,334.7659 Q1041.7668,334.1878 1041.173,333.9222 Q1040.5793,333.6409 1039.9543,333.6409 Q1038.6105,333.6409 1037.923,334.7191 Q1037.2355,335.7816 1037.2355,337.8753 Q1037.2355,339.9691 1037.923,341.0472 Q1038.6105,342.1097 1039.9543,342.1097 Q1040.5793,342.1097 1041.173,341.8441 Q1041.7668,341.5628 1042.3918,340.9847 L1042.3918,343.7034 Z " fill="#FFFFFF"/><text fill="#000000" font-family="sans-serif" font-size="12" font-style="italic" lengthAdjust="spacing" textLength="73.0488" x="1091.3483" y="334.0687">&#171;Prototype&#187;</text><text fill="#FFFFFF" font-family="sans-serif" font-size="14" lengthAdjust="spacing" textLength="137.4092" x="1059.1681" y="349.8939">PlantillaMovimiento</text><line style="stroke:#E7E7E7;stroke-width:0.5;" x1="999.57" x2="1224.4304" y1="358.1956" y2="358.1956"/><rect fill="none" height="6" style="stroke:#C82930;stroke-width:1;" width="6" x="1006.57" y="368.8441"/><text fill="#FFFFFF" font-family="sans-serif" font-size="14" lengthAdjust="spacing" textLength="105.2803" x="1018.57" y="375.1907">nombre: String</text><rect fill="none" height="6" style="stroke:#C82930;stroke-width:1;" width="6" x="1006.57" y="385.1409"/><text fill="#FFFFFF" font-family="sans-serif" font-size="14" lengthAdjust="spacing" textLength="153.7402" x="1018.57" y="391.4876">duracionEstimada: int</text><line style="stroke:#E7E7E7;stroke-width:0.5;" x1="999.57" x2="1224.4304" y1="398.7894" y2="398.7894"/><ellipse cx="1009.57" cy="412.4378" fill="#84BE84" rx="3" ry="3" style="stroke:#038048;stroke-width:1;"/><text fill="#FFFFFF" font-family="sans-serif" font-size="14" lengthAdjust="spacing" textLength="200.8604" x="1018.57" y="415.7845">clonar(): PlantillaMovimiento</text></g><!--class NotificadorSMS--><g class="entity" data-entity="NotificadorSMS" data-source-line="67" data-uid="ent0016" id="entity_NotificadorSMS"><rect fill="#313139" height="64.2969" rx="2.5" ry="2.5" style="stroke:#E7E7E7;stroke-width:0.5;" width="374.1816" x="1328.91" y="570.53"/><ellipse cx="1458.4647" cy="586.53" fill="#352866" rx="11" ry="11" style="stroke:#E7E7E7;stroke-width:1;"/><path d="M1454.3866,582.2956 L1454.3866,580.1394 L1461.7772,580.1394 L1461.7772,582.2956 L1459.3084,582.2956 L1459.3084,590.3738 L1461.7772,590.3738 L1461.7772,592.53 L1454.3866,592.53 L1454.3866,590.3738 L1456.8553,590.3738 L1456.8553,582.2956 L1454.3866,582.2956 Z " fill="#FFFFFF"/><text fill="#FFFFFF" font-family="sans-serif" font-size="14" font-style="italic" lengthAdjust="spacing" textLength="106.5723" x="1478.9647" y="591.3767">NotificadorSMS</text><line style="stroke:#E7E7E7;stroke-width:0.5;" x1="1329.91" x2="1702.0916" y1="602.53" y2="602.53"/><line style="stroke:#E7E7E7;stroke-width:0.5;" x1="1329.91" x2="1702.0916" y1="610.53" y2="610.53"/><ellipse cx="1339.91" cy="624.1784" fill="#84BE84" rx="3" ry="3" style="stroke:#038048;stroke-width:1;"/><text fill="#FFFFFF" font-family="sans-serif" font-size="14" lengthAdjust="spacing" textLength="348.1816" x="1348.91" y="627.5251">enviarSMS(mensaje: String, numero: String): void</text></g><!--class ServicioSMSExterno--><g class="entity" data-entity="ServicioSMSExterno" data-source-line="71" data-uid="ent0017" id="entity_ServicioSMSExterno"><rect fill="#313139" height="64.2969" rx="2.5" ry="2.5" style="stroke:#E7E7E7;stroke-width:0.5;" width="322.8096" x="1354.6" y="884.43"/><ellipse cx="1441.8231" cy="900.43" fill="#2E5233" rx="11" ry="11" style="stroke:#E7E7E7;stroke-width:1;"/><path d="M1444.7919,906.0706 Q1444.2138,906.3675 1443.5731,906.5081 Q1442.9325,906.6644 1442.2294,906.6644 Q1439.7294,906.6644 1438.4013,905.0238 Q1437.0888,903.3675 1437.0888,900.2425 Q1437.0888,897.1175 1438.4013,895.4613 Q1439.7294,893.805 1442.2294,893.805 Q1442.9325,893.805 1443.5731,893.9613 Q1444.2294,894.1175 1444.7919,894.4144 L1444.7919,897.1331 Q1444.1669,896.555 1443.5731,896.2894 Q1442.9794,896.0081 1442.3544,896.0081 Q1441.0106,896.0081 1440.3231,897.0863 Q1439.6356,898.1488 1439.6356,900.2425 Q1439.6356,902.3363 1440.3231,903.4144 Q1441.0106,904.4769 1442.3544,904.4769 Q1442.9794,904.4769 1443.5731,904.2113 Q1444.1669,903.93 1444.7919,903.3519 L1444.7919,906.0706 Z " fill="#FFFFFF"/><text fill="#FFFFFF" font-family="sans-serif" font-size="14" lengthAdjust="spacing" textLength="139.8633" x="1462.3231" y="905.2767">ServicioSMSExterno</text><line style="stroke:#E7E7E7;stroke-width:0.5;" x1="1355.6" x2="1676.4096" y1="916.43" y2="916.43"/><line style="stroke:#E7E7E7;stroke-width:0.5;" x1="1355.6" x2="1676.4096" y1="924.43" y2="924.43"/><ellipse cx="1365.6" cy="938.0784" fill="#84BE84" rx="3" ry="3" style="stroke:#038048;stroke-width:1;"/><text fill="#FFFFFF" font-family="sans-serif" font-size="14" lengthAdjust="spacing" textLength="296.8096" x="1374.6" y="941.4251">sendText(text: String, phone: String): void</text></g><!--class AdaptadorSMS--><g class="entity" data-entity="AdaptadorSMS" data-source-line="75" data-uid="ent0018" id="entity_AdaptadorSMS"><rect fill="#313139" height="88.8594" rx="2.5" ry="2.5" style="stroke:#E7E7E7;stroke-width:0.5;" width="374.1816" x="1328.91" y="735.57"/><ellipse cx="1460.2215" cy="755.7028" fill="#2E5233" rx="11" ry="11" style="stroke:#E7E7E7;stroke-width:1;"/><path d="M1463.1903,761.3434 Q1462.6121,761.6403 1461.9715,761.7809 Q1461.3309,761.9372 1460.6278,761.9372 Q1458.1278,761.9372 1456.7996,760.2966 Q1455.4871,758.6403 1455.4871,755.5153 Q1455.4871,752.3903 1456.7996,750.7341 Q1458.1278,749.0778 1460.6278,749.0778 Q1461.3309,749.0778 1461.9715,749.2341 Q1462.6278,749.3903 1463.1903,749.6872 L1463.1903,752.4059 Q1462.5653,751.8278 1461.9715,751.5622 Q1461.3778,751.2809 1460.7528,751.2809 Q1459.409,751.2809 1458.7215,752.3591 Q1458.034,753.4216 1458.034,755.5153 Q1458.034,757.6091 1458.7215,758.6872 Q1459.409,759.7497 1460.7528,759.7497 Q1461.3778,759.7497 1461.9715,759.4841 Q1462.5653,759.2028 1463.1903,758.6247 L1463.1903,761.3434 Z " fill="#FFFFFF"/><text fill="#000000" font-family="sans-serif" font-size="12" font-style="italic" lengthAdjust="spacing" textLength="62.502" x="1500.9998" y="751.7087">&#171;Adapter&#187;</text><text fill="#FFFFFF" font-family="sans-serif" font-size="14" lengthAdjust="spacing" textLength="103.0586" x="1480.7215" y="767.5339">AdaptadorSMS</text><line style="stroke:#E7E7E7;stroke-width:0.5;" x1="1329.91" x2="1702.0916" y1="775.8356" y2="775.8356"/><rect fill="none" height="6" style="stroke:#C82930;stroke-width:1;" width="6" x="1336.91" y="786.4841"/><text fill="#FFFFFF" font-family="sans-serif" font-size="14" lengthAdjust="spacing" textLength="203.0205" x="1348.91" y="792.8307">servicio: ServicioSMSExterno</text><line style="stroke:#E7E7E7;stroke-width:0.5;" x1="1329.91" x2="1702.0916" y1="800.1325" y2="800.1325"/><ellipse cx="1339.91" cy="813.7809" fill="#84BE84" rx="3" ry="3" style="stroke:#038048;stroke-width:1;"/><text fill="#FFFFFF" font-family="sans-serif" font-size="14" lengthAdjust="spacing" textLength="348.1816" x="1348.91" y="817.1276">enviarSMS(mensaje: String, numero: String): void</text></g><!--reverse link NotificadorSMS to AdaptadorSMS--><g class="link" data-entity-1="NotificadorSMS" data-entity-2="AdaptadorSMS" data-source-line="76" data-uid="lnk19" id="link_NotificadorSMS_AdaptadorSMS"><path d="M1516,653.03 C1516,680.9 1516,703.95 1516,735.09" fill="none" id="NotificadorSMS-backto-AdaptadorSMS" style="stroke:#E7E7E7;stroke-width:1;stroke-dasharray:7.0,7.0;"/><polygon fill="none" points="1516,635.03,1510,653.03,1522,653.03,1516,635.03" style="stroke:#E7E7E7;stroke-width:1;"/></g><!--link Cliente to Turno--><g class="link" data-entity-1="Cliente" data-entity-2="Turno" data-source-line="83" data-uid="lnk20" id="link_Cliente_Turno"><path codeLine="83" d="M156.7,170.66 C140.83,247.6 126.15,378.1 180,471.53 C202.39,510.38 236.1286,536.2192 274.8586,556.5692" fill="none" id="Cliente-to-Turno" style="stroke:#E7E7E7;stroke-width:1;"/><polygon fill="#E7E7E7" points="280.17,559.36,274.0634,551.6328,275.7438,557.0343,270.3423,558.7148,280.17,559.36" style="stroke:#E7E7E7;stroke-width:1;"/></g><!--link Cliente to NotificadorSMS--><g class="link" data-entity-1="Cliente" data-entity-2="NotificadorSMS" data-source-line="84" data-uid="lnk21" id="link_Cliente_NotificadorSMS"><path codeLine="84" d="M278.18,170.86 C298.69,180.58 320.51,189.14 342,194.49 C366.23,200.52 1218.94,190.77 1241,202.49 C1393.37,283.41 1476.0732,485.055 1503.7732,564.435" fill="none" id="Cliente-to-NotificadorSMS" style="stroke:#E7E7E7;stroke-width:1;"/><polygon fill="#E7E7E7" points="1505.75,570.1,1506.5614,560.2846,1504.1026,565.3792,1499.0081,562.9204,1505.75,570.1" style="stroke:#E7E7E7;stroke-width:1;"/></g><!--link Recepcionista to GestorTurnos--><g class="link" data-entity-1="Recepcionista" data-entity-2="GestorTurnos" data-source-line="85" data-uid="lnk22" id="link_Recepcionista_GestorTurnos"><path codeLine="85" d="M477,162.79 C477,212.98 477,279.33 477,323.78" fill="none" id="Recepcionista-to-GestorTurnos" style="stroke:#E7E7E7;stroke-width:1;"/><polygon fill="#E7E7E7" points="477,329.78,481,320.78,477,324.78,473,320.78,477,329.78" style="stroke:#E7E7E7;stroke-width:1;"/></g><!--link GestorTurnos to Turno--><g class="link" data-entity-1="GestorTurnos" data-entity-2="Turno" data-source-line="86" data-uid="lnk23" id="link_GestorTurnos_Turno"><path codeLine="86" d="M462.9,411.08 C451.32,443.6 436.6139,484.8681 422.6639,524.0181" fill="none" id="GestorTurnos-to-Turno" style="stroke:#E7E7E7;stroke-width:1;"/><polygon fill="#E7E7E7" points="420.65,529.67,427.4388,522.5347,422.3283,524.9601,419.9029,519.8495,420.65,529.67" style="stroke:#E7E7E7;stroke-width:1;"/></g><!--link GestorTurnos to NotificadorSMS--><g class="link" data-entity-1="GestorTurnos" data-entity-2="NotificadorSMS" data-source-line="87" data-uid="lnk24" id="link_GestorTurnos_NotificadorSMS"><path codeLine="87" d="M529.63,411.12 C560.51,432.38 601.18,457.1 641,471.53 C868.6,554.01 1141.6612,583.8931 1322.5112,594.9731" fill="none" id="GestorTurnos-to-NotificadorSMS" style="stroke:#E7E7E7;stroke-width:1;"/><polygon fill="#E7E7E7" points="1328.5,595.34,1319.7614,590.7971,1323.5094,595.0342,1319.2722,598.7821,1328.5,595.34" style="stroke:#E7E7E7;stroke-width:1;"/></g><!--link AdaptadorSMS to ServicioSMSExterno--><g class="link" data-entity-1="AdaptadorSMS" data-entity-2="ServicioSMSExterno" data-source-line="88" data-uid="lnk25" id="link_AdaptadorSMS_ServicioSMSExterno"><path codeLine="88" d="M1516,824.7 C1516,844.04 1516,860.36 1516,878.04" fill="none" id="AdaptadorSMS-to-ServicioSMSExterno" style="stroke:#E7E7E7;stroke-width:1;"/><polygon fill="#E7E7E7" points="1516,884.04,1520,875.04,1516,879.04,1512,875.04,1516,884.04" style="stroke:#E7E7E7;stroke-width:1;"/></g><!--link ConfiguracionSistema to AdaptadorSMS--><g class="link" data-entity-1="ConfiguracionSistema" data-entity-2="AdaptadorSMS" data-source-line="89" data-uid="lnk26" id="link_ConfiguracionSistema_AdaptadorSMS"><path codeLine="89" d="M890.23,447.93 C988.06,527.23 1151.65,649.78 1311,723.57 C1319.87,727.68 1323.4853,729.3881 1332.9053,732.9881" fill="none" id="ConfiguracionSistema-to-AdaptadorSMS" style="stroke:#E7E7E7;stroke-width:1;"/><polygon fill="#E7E7E7" points="1338.51,735.13,1331.5309,728.1807,1333.8394,733.3451,1328.6751,735.6536,1338.51,735.13" style="stroke:#E7E7E7;stroke-width:1;"/></g><!--SRC=[fLLBRjim4Dth54GsIP3w0eORGB25Da0Z6v6xBbXgxB3bHo1f8ssHK_K8lLY74YMBAkqiceKH3X-7yzwReQx9-xD_f5olrdEo51oKWml0hA7iEzq3kVhyS4L-POGmGQqTJle88JEbvLS3Sr8vmzM-YpaGiDDAHz4x0nRCaPhjmIXzSpidxJ_T7gEAWUZtNDX3p57pEa2qiWVXg2cietK4wY9zkjTigFK963ICQyKHSQ7YkoEOYkyFBRDKVTI1gi44xka2TrnHmN-U9_6QOMdNvB8n5Mh4Qsr8tZHdtScKhj6O0OkBl16SKSyLR6VNuDzAIwwulWe2TDAqjOM85-KWmQ1XNBa-j0FsJ3zgG-TaXVotN4A_1QtWK-5R5VRWoZQNL_2KpSU3SRV9Sv8QHirIIvrxhNa77DHjJIK4iCxnwO70fYXN3qMvBSAwABzidjRBebg7GBxrY5M_NERbilYKXtN8tYdp0TdfpaGxvCVwhKDnBxKeefHsVCSzaT0fR1Yrc4suS_1egTKE6z2WWtz-gzYgqPvM5ROoI4eMYmgxLu3Jwlx-v2DNA8vY74rB7UjXKjUw3BNwxMWQV9gQQqadKU_XGv_VktFX1ezzd5pYZyG9RG8aUz1bmHxraKilhBQnMXj1bUD2q1C2nTeOxRJxqS1OhCHBWD4w4C8suvBMD6fZ9dmFU2Q9UqQbdflqyPJZ9Nvon-p1ahE3dePNZzLatFEQDdv0JAyBbWzcHzdfB6xYkLDpWpfowaCt4fIbtmPDtf7-OKXvCbAzhn1p52zutMWqqMLLR-75tJZyEMLkdf70cua7DhxWnQ9TWa4NkMm4OBdEdgCriw6eUQAy_wJ-rclUcVs4txIKhPFNlF-apcRtuLsEGXDwMVnLyuZeoSgYrIZdF_5fuaXh3qYucYLV8myUd_uB]--></g></svg>