<svg xmlns="http://www.w3.org/2000/svg" xmlns:xlink="http://www.w3.org/1999/xlink" contentStyleType="text/css" data-diagram-type="CLASS" height="836px" preserveAspectRatio="none" style="width:1564px;height:836px;background:#1B1B1B;" version="1.1" viewBox="0 0 1564 836" width="1564px" zoomAndPan="magnify"><defs/><g><rect fill="#1B1B1B" height="836" style="stroke:none;stroke-width:1;" width="1564" x="0" y="0"/><!--cluster Dominio--><g class="cluster" data-entity="Dominio" data-source-line="3" data-uid="ent0002" id="cluster_Dominio"><path d="M8.5,161.59 L74.5098,161.59 A3.75,3.75 0 0 1 77.0098,164.09 L84.0098,183.8869 L807.5,183.8869 A2.5,2.5 0 0 1 810,186.3869 L810,549.49 A2.5,2.5 0 0 1 807.5,551.99 L8.5,551.99 A2.5,2.5 0 0 1 6,549.49 L6,164.09 A2.5,2.5 0 0 1 8.5,161.59" fill="none" style="stroke:#FFFFFF;stroke-width:1.5;"/><line style="stroke:#FFFFFF;stroke-width:1.5;" x1="6" x2="84.0098" y1="183.8869" y2="183.8869"/><text fill="#FFFFFF" font-family="sans-serif" font-size="14" font-weight="bold" lengthAdjust="spacing" textLength="65.0098" x="10" y="176.5851">Dominio</text></g><!--cluster Infraestructura--><g class="cluster" data-entity="Infraestructura" data-source-line="35" data-uid="ent0007" id="cluster_Infraestructura"><path d="M836.5,351.08 L957.8193,351.08 A3.75,3.75 0 0 1 960.3193,353.58 L967.3193,373.3769 L1554.5,373.3769 A2.5,2.5 0 0 1 1557,375.8769 L1557,826.78 A2.5,2.5 0 0 1 1554.5,829.28 L836.5,829.28 A2.5,2.5 0 0 1 834,826.78 L834,353.58 A2.5,2.5 0 0 1 836.5,351.08" fill="none" style="stroke:#FFFFFF;stroke-width:1.5;"/><line style="stroke:#FFFFFF;stroke-width:1.5;" x1="834" x2="967.3193" y1="373.3769" y2="373.3769"/><text fill="#FFFFFF" font-family="sans-serif" font-size="14" font-weight="bold" lengthAdjust="spacing" textLength="120.3193" x="838" y="366.0751">Infraestructura</text></g><!--cluster UI--><g class="cluster" data-entity="UI" data-source-line="59" data-uid="ent0013" id="cluster_UI"><path d="M66.5,6 L84.0771,6 A3.75,3.75 0 0 1 86.5771,8.5 L93.5771,28.2969 L546.5,28.2969 A2.5,2.5 0 0 1 549,30.7969 L549,135.09 A2.5,2.5 0 0 1 546.5,137.59 L66.5,137.59 A2.5,2.5 0 0 1 64,135.09 L64,8.5 A2.5,2.5 0 0 1 66.5,6" fill="none" style="stroke:#FFFFFF;stroke-width:1.5;"/><line style="stroke:#FFFFFF;stroke-width:1.5;" x1="64" x2="93.5771" y1="28.2969" y2="28.2969"/><text fill="#FFFFFF" font-family="sans-serif" font-size="14" font-weight="bold" lengthAdjust="spacing" textLength="16.5771" x="68" y="20.9951">UI</text></g><!--class Turno--><g class="entity" data-entity="Turno" data-source-line="4" data-uid="ent0003" id="entity_Turno"><rect fill="#313139" height="145.7813" rx="2.5" ry="2.5" style="stroke:#E7E7E7;stroke-width:0.5;" width="226.7783" x="367.61" y="390.21"/><ellipse cx="456.4396" cy="406.21" fill="#2E5233" rx="11" ry="11" style="stroke:#E7E7E7;stroke-width:1;"/><path d="M459.4083,411.8506 Q458.8302,412.1475 458.1896,412.2881 Q457.549,412.4444 456.8458,412.4444 Q454.3458,412.4444 453.0177,410.8038 Q451.7052,409.1475 451.7052,406.0225 Q451.7052,402.8975 453.0177,401.2413 Q454.3458,399.585 456.8458,399.585 Q457.549,399.585 458.1896,399.7413 Q458.8458,399.8975 459.4083,400.1944 L459.4083,402.9131 Q458.7833,402.335 458.1896,402.0694 Q457.5958,401.7881 456.9708,401.7881 Q455.6271,401.7881 454.9396,402.8663 Q454.2521,403.9288 454.2521,406.0225 Q454.2521,408.1163 454.9396,409.1944 Q455.6271,410.2569 456.9708,410.2569 Q457.5958,410.2569 458.1896,409.9913 Q458.7833,409.71 459.4083,409.1319 L459.4083,411.8506 Z " fill="#FFFFFF"/><text fill="#FFFFFF" font-family="sans-serif" font-size="14" lengthAdjust="spacing" textLength="40.6191" x="476.9396" y="411.0567">Turno</text><line style="stroke:#E7E7E7;stroke-width:0.5;" x1="368.61" x2="593.3883" y1="422.21" y2="422.21"/><text fill="#FFFFFF" font-family="sans-serif" font-size="14" lengthAdjust="spacing" textLength="86.7891" x="373.61" y="439.2051">-numero: int</text><text fill="#FFFFFF" font-family="sans-serif" font-size="14" lengthAdjust="spacing" textLength="154.4922" x="373.61" y="455.502">-fechaHora: DateTime</text><text fill="#FFFFFF" font-family="sans-serif" font-size="14" lengthAdjust="spacing" textLength="149.9258" x="373.61" y="471.7989">-estado: EstadoTurno</text><line style="stroke:#E7E7E7;stroke-width:0.5;" x1="368.61" x2="593.3883" y1="479.1006" y2="479.1006"/><text fill="#FFFFFF" font-family="sans-serif" font-size="14" lengthAdjust="spacing" textLength="128.9805" x="373.61" y="496.0957">+getNumero(): int</text><text fill="#FFFFFF" font-family="sans-serif" font-size="14" lengthAdjust="spacing" textLength="190.75" x="373.61" y="512.3926">+getEstado(): EstadoTurno</text><text fill="#FFFFFF" font-family="sans-serif" font-size="14" lengthAdjust="spacing" textLength="214.7783" x="373.61" y="528.6895">+marcarComoAtendido(): void</text></g><!--class EstadoTurno--><g class="entity" data-entity="EstadoTurno" data-source-line="13" data-uid="ent0004" id="entity_EstadoTurno"><rect fill="#313139" height="113.1875" rx="2.5" ry="2.5" style="stroke:#E7E7E7;stroke-width:0.5;" width="120.2793" x="21.86" y="204.74"/><ellipse cx="36.86" cy="220.74" fill="#852D19" rx="11" ry="11" style="stroke:#E7E7E7;stroke-width:1;"/><path d="M40.9694,226.74 L33.2506,226.74 L33.2506,214.3494 L40.9694,214.3494 L40.9694,216.5056 L35.7038,216.5056 L35.7038,219.1775 L40.4694,219.1775 L40.4694,221.3338 L35.7038,221.3338 L35.7038,224.5838 L40.9694,224.5838 L40.9694,226.74 Z " fill="#FFFFFF"/><text fill="#FFFFFF" font-family="sans-serif" font-size="14" lengthAdjust="spacing" textLength="88.2793" x="50.86" y="225.5867">EstadoTurno</text><line style="stroke:#E7E7E7;stroke-width:0.5;" x1="22.86" x2="141.1393" y1="236.74" y2="236.74"/><text fill="#FFFFFF" font-family="sans-serif" font-size="14" lengthAdjust="spacing" textLength="79.3857" x="27.86" y="253.7351">PENDIENTE</text><text fill="#FFFFFF" font-family="sans-serif" font-size="14" lengthAdjust="spacing" textLength="94.0352" x="27.86" y="270.032">EN_PROCESO</text><text fill="#FFFFFF" font-family="sans-serif" font-size="14" lengthAdjust="spacing" textLength="74.1563" x="27.86" y="286.3289">ATENDIDO</text><text fill="#FFFFFF" font-family="sans-serif" font-size="14" lengthAdjust="spacing" textLength="87.623" x="27.86" y="302.6257">CANCELADO</text><line style="stroke:#E7E7E7;stroke-width:0.5;" x1="22.86" x2="141.1393" y1="309.9275" y2="309.9275"/></g><!--class Cliente--><g class="entity" data-entity="Cliente" data-source-line="20" data-uid="ent0005" id="entity_Cliente"><rect fill="#313139" height="129.4844" rx="2.5" ry="2.5" style="stroke:#E7E7E7;stroke-width:0.5;" width="300.0527" x="493.97" y="196.59"/><ellipse cx="615.1746" cy="212.59" fill="#2E5233" rx="11" ry="11" style="stroke:#E7E7E7;stroke-width:1;"/><path d="M618.1433,218.2306 Q617.5652,218.5275 616.9246,218.6681 Q616.284,218.8244 615.5808,218.8244 Q613.0808,218.8244 611.7527,217.1837 Q610.4402,215.5275 610.4402,212.4025 Q610.4402,209.2775 611.7527,207.6212 Q613.0808,205.965 615.5808,205.965 Q616.284,205.965 616.9246,206.1212 Q617.5808,206.2775 618.1433,206.5744 L618.1433,209.2931 Q617.5183,208.715 616.9246,208.4494 Q616.3308,208.1681 615.7058,208.1681 Q614.3621,208.1681 613.6746,209.2462 Q612.9871,210.3087 612.9871,212.4025 Q612.9871,214.4962 613.6746,215.5744 Q614.3621,216.6369 615.7058,216.6369 Q616.3308,216.6369 616.9246,216.3712 Q617.5183,216.09 618.1433,215.5119 L618.1433,218.2306 Z " fill="#FFFFFF"/><text fill="#FFFFFF" font-family="sans-serif" font-size="14" lengthAdjust="spacing" textLength="49.1436" x="635.6746" y="217.4367">Cliente</text><line style="stroke:#E7E7E7;stroke-width:0.5;" x1="494.97" x2="793.0227" y1="228.59" y2="228.59"/><text fill="#FFFFFF" font-family="sans-serif" font-size="14" lengthAdjust="spacing" textLength="110.332" x="499.97" y="245.5851">-nombre: String</text><text fill="#FFFFFF" font-family="sans-serif" font-size="14" lengthAdjust="spacing" textLength="113.5381" x="499.97" y="261.882">-telefono: String</text><line style="stroke:#E7E7E7;stroke-width:0.5;" x1="494.97" x2="793.0227" y1="269.1837" y2="269.1837"/><text fill="#FFFFFF" font-family="sans-serif" font-size="14" lengthAdjust="spacing" textLength="171.7119" x="499.97" y="286.1789">+reservarTurno(): Turno</text><text fill="#FFFFFF" font-family="sans-serif" font-size="14" lengthAdjust="spacing" textLength="217.0273" x="499.97" y="302.4757">+cancelarTurno(t: Turno): void</text><text fill="#FFFFFF" font-family="sans-serif" font-size="14" lengthAdjust="spacing" textLength="288.0527" x="499.97" y="318.7726">+consultarEstado(t: Turno): EstadoTurno</text></g><!--class GestorTurnos--><g class="entity" data-entity="GestorTurnos" data-source-line="28" data-uid="ent0006" id="entity_GestorTurnos"><rect fill="#313139" height="96.8906" rx="2.5" ry="2.5" style="stroke:#E7E7E7;stroke-width:0.5;" width="282.293" x="176.85" y="212.89"/><ellipse cx="266.5067" cy="228.89" fill="#2E5233" rx="11" ry="11" style="stroke:#E7E7E7;stroke-width:1;"/><path d="M269.4755,234.5306 Q268.8974,234.8275 268.2567,234.9681 Q267.6161,235.1244 266.913,235.1244 Q264.413,235.1244 263.0849,233.4838 Q261.7724,231.8275 261.7724,228.7025 Q261.7724,225.5775 263.0849,223.9213 Q264.413,222.265 266.913,222.265 Q267.6161,222.265 268.2567,222.4213 Q268.913,222.5775 269.4755,222.8744 L269.4755,225.5931 Q268.8505,225.015 268.2567,224.7494 Q267.663,224.4681 267.038,224.4681 Q265.6942,224.4681 265.0067,225.5463 Q264.3192,226.6088 264.3192,228.7025 Q264.3192,230.7963 265.0067,231.8744 Q265.6942,232.9369 267.038,232.9369 Q267.663,232.9369 268.2567,232.6713 Q268.8505,232.39 269.4755,231.8119 L269.4755,234.5306 Z " fill="#FFFFFF"/><text fill="#FFFFFF" font-family="sans-serif" font-size="14" lengthAdjust="spacing" textLength="94.4795" x="287.0067" y="233.7367">GestorTurnos</text><line style="stroke:#E7E7E7;stroke-width:0.5;" x1="177.85" x2="458.143" y1="244.89" y2="244.89"/><line style="stroke:#E7E7E7;stroke-width:0.5;" x1="177.85" x2="458.143" y1="252.89" y2="252.89"/><text fill="#FFFFFF" font-family="sans-serif" font-size="14" lengthAdjust="spacing" textLength="270.293" x="182.85" y="269.8851">+asignarTurno(cliente: Cliente): Turno</text><text fill="#FFFFFF" font-family="sans-serif" font-size="14" lengthAdjust="spacing" textLength="244.2207" x="182.85" y="286.182">+atenderTurno(turno: Turno): void</text><text fill="#FFFFFF" font-family="sans-serif" font-size="14" lengthAdjust="spacing" textLength="245.1436" x="182.85" y="302.4789">+finalizarTurno(turno: Turno): void</text></g><!--class ConfiguracionSistema--><g class="entity" data-entity="ConfiguracionSistema" data-source-line="36" data-uid="ent0008" id="entity_ConfiguracionSistema"><rect fill="#313139" height="154.0469" rx="2.5" ry="2.5" style="stroke:#E7E7E7;stroke-width:0.5;" width="283.7559" x="850.12" y="386.08"/><ellipse cx="910.9769" cy="406.2128" fill="#2E5233" rx="11" ry="11" style="stroke:#E7E7E7;stroke-width:1;"/><path d="M913.9457,411.8534 Q913.3676,412.1503 912.7269,412.2909 Q912.0863,412.4472 911.3832,412.4472 Q908.8832,412.4472 907.5551,410.8066 Q906.2426,409.1503 906.2426,406.0253 Q906.2426,402.9003 907.5551,401.2441 Q908.8832,399.5878 911.3832,399.5878 Q912.0863,399.5878 912.7269,399.7441 Q913.3832,399.9003 913.9457,400.1972 L913.9457,402.9159 Q913.3207,402.3378 912.7269,402.0722 Q912.1332,401.7909 911.5082,401.7909 Q910.1644,401.7909 909.4769,402.8691 Q908.7894,403.9316 908.7894,406.0253 Q908.7894,408.1191 909.4769,409.1972 Q910.1644,410.2597 911.5082,410.2597 Q912.1332,410.2597 912.7269,409.9941 Q913.3207,409.7128 913.9457,409.1347 L913.9457,411.8534 Z " fill="#FFFFFF"/><text fill="#000000" font-family="sans-serif" font-size="12" font-style="italic" lengthAdjust="spacing" textLength="71.2266" x="972.6346" y="402.2187">&#171;Singleton&#187;</text><text fill="#FFFFFF" font-family="sans-serif" font-size="14" lengthAdjust="spacing" textLength="153.542" x="931.4769" y="418.0439">ConfiguracionSistema</text><line style="stroke:#E7E7E7;stroke-width:0.5;" x1="851.12" x2="1132.8759" y1="426.3456" y2="426.3456"/><text fill="#FFFFFF" font-family="sans-serif" font-size="14" lengthAdjust="spacing" textLength="230.9248" x="856.12" y="443.3407">-instancia: ConfiguracionSistema</text><text fill="#FFFFFF" font-family="sans-serif" font-size="14" lengthAdjust="spacing" textLength="178.1924" x="856.12" y="459.6376">-modoNotificacion: String</text><text fill="#FFFFFF" font-family="sans-serif" font-size="14" lengthAdjust="spacing" textLength="103.4482" x="856.12" y="475.9345">-idioma: String</text><line style="stroke:#E7E7E7;stroke-width:0.5;" x1="851.12" x2="1132.8759" y1="483.2363" y2="483.2363"/><text fill="#FFFFFF" font-family="sans-serif" font-size="14" lengthAdjust="spacing" textLength="271.7559" x="856.12" y="500.2314">+getInstancia(): ConfiguracionSistema</text><text fill="#FFFFFF" font-family="sans-serif" font-size="14" lengthAdjust="spacing" textLength="217.2256" x="856.12" y="516.5282">+getModoNotificacion(): String</text><text fill="#FFFFFF" font-family="sans-serif" font-size="14" lengthAdjust="spacing" textLength="268.0645" x="856.12" y="532.8251">+setModoNotificacion(m: String): void</text></g><!--class NotificadorSMS--><g class="entity" data-entity="NotificadorSMS" data-source-line="45" data-uid="ent0009" id="entity_NotificadorSMS"><rect fill="#313139" height="64.2969" rx="2.5" ry="2.5" style="stroke:#E7E7E7;stroke-width:0.5;" width="371.9121" x="1169.04" y="430.95"/><ellipse cx="1297.4599" cy="446.95" fill="#352866" rx="11" ry="11" style="stroke:#E7E7E7;stroke-width:1;"/><path d="M1293.3818,442.7156 L1293.3818,440.5594 L1300.7724,440.5594 L1300.7724,442.7156 L1298.3037,442.7156 L1298.3037,450.7938 L1300.7724,450.7938 L1300.7724,452.95 L1293.3818,452.95 L1293.3818,450.7938 L1295.8505,450.7938 L1295.8505,442.7156 L1293.3818,442.7156 Z " fill="#FFFFFF"/><text fill="#FFFFFF" font-family="sans-serif" font-size="14" font-style="italic" lengthAdjust="spacing" textLength="106.5723" x="1317.9599" y="451.7967">NotificadorSMS</text><line style="stroke:#E7E7E7;stroke-width:0.5;" x1="1170.04" x2="1539.9521" y1="462.95" y2="462.95"/><line style="stroke:#E7E7E7;stroke-width:0.5;" x1="1170.04" x2="1539.9521" y1="470.95" y2="470.95"/><text fill="#FFFFFF" font-family="sans-serif" font-size="14" lengthAdjust="spacing" textLength="359.9121" x="1175.04" y="487.9451">+enviarSMS(mensaje: String, numero: String): void</text></g><!--class ServicioSMSExterno--><g class="entity" data-entity="ServicioSMSExterno" data-source-line="49" data-uid="ent0010" id="entity_ServicioSMSExterno"><rect fill="#313139" height="64.2969" rx="2.5" ry="2.5" style="stroke:#E7E7E7;stroke-width:0.5;" width="320.54" x="1034.73" y="748.98"/><ellipse cx="1120.8184" cy="764.98" fill="#2E5233" rx="11" ry="11" style="stroke:#E7E7E7;stroke-width:1;"/><path d="M1123.7871,770.6206 Q1123.209,770.9175 1122.5684,771.0581 Q1121.9278,771.2144 1121.2246,771.2144 Q1118.7246,771.2144 1117.3965,769.5738 Q1116.084,767.9175 1116.084,764.7925 Q1116.084,761.6675 1117.3965,760.0113 Q1118.7246,758.355 1121.2246,758.355 Q1121.9278,758.355 1122.5684,758.5113 Q1123.2246,758.6675 1123.7871,758.9644 L1123.7871,761.6831 Q1123.1621,761.105 1122.5684,760.8394 Q1121.9746,760.5581 1121.3496,760.5581 Q1120.0059,760.5581 1119.3184,761.6363 Q1118.6309,762.6988 1118.6309,764.7925 Q1118.6309,766.8863 1119.3184,767.9644 Q1120.0059,769.0269 1121.3496,769.0269 Q1121.9746,769.0269 1122.5684,768.7613 Q1123.1621,768.48 1123.7871,767.9019 L1123.7871,770.6206 Z " fill="#FFFFFF"/><text fill="#FFFFFF" font-family="sans-serif" font-size="14" lengthAdjust="spacing" textLength="139.8633" x="1141.3184" y="769.8267">ServicioSMSExterno</text><line style="stroke:#E7E7E7;stroke-width:0.5;" x1="1035.73" x2="1354.27" y1="780.98" y2="780.98"/><line style="stroke:#E7E7E7;stroke-width:0.5;" x1="1035.73" x2="1354.27" y1="788.98" y2="788.98"/><text fill="#FFFFFF" font-family="sans-serif" font-size="14" lengthAdjust="spacing" textLength="308.54" x="1040.73" y="805.9751">+sendText(text: String, phone: String): void</text></g><!--class AdaptadorSMS--><g class="entity" data-entity="AdaptadorSMS" data-source-line="53" data-uid="ent0011" id="entity_AdaptadorSMS"><rect fill="#313139" height="88.8594" rx="2.5" ry="2.5" style="stroke:#E7E7E7;stroke-width:0.5;" width="371.9121" x="1009.04" y="600.12"/><ellipse cx="1139.2168" cy="620.2528" fill="#2E5233" rx="11" ry="11" style="stroke:#E7E7E7;stroke-width:1;"/><path d="M1142.1855,625.8934 Q1141.6074,626.1903 1140.9668,626.3309 Q1140.3261,626.4872 1139.623,626.4872 Q1137.123,626.4872 1135.7949,624.8466 Q1134.4824,623.1903 1134.4824,620.0653 Q1134.4824,616.9403 1135.7949,615.2841 Q1137.123,613.6278 1139.623,613.6278 Q1140.3261,613.6278 1140.9668,613.7841 Q1141.623,613.9403 1142.1855,614.2372 L1142.1855,616.9559 Q1141.5605,616.3778 1140.9668,616.1122 Q1140.373,615.8309 1139.748,615.8309 Q1138.4043,615.8309 1137.7168,616.9091 Q1137.0293,617.9716 1137.0293,620.0653 Q1137.0293,622.1591 1137.7168,623.2372 Q1138.4043,624.2997 1139.748,624.2997 Q1140.373,624.2997 1140.9668,624.0341 Q1141.5605,623.7528 1142.1855,623.1747 L1142.1855,625.8934 Z " fill="#FFFFFF"/><text fill="#000000" font-family="sans-serif" font-size="12" font-style="italic" lengthAdjust="spacing" textLength="62.502" x="1179.9951" y="616.2587">&#171;Adapter&#187;</text><text fill="#FFFFFF" font-family="sans-serif" font-size="14" lengthAdjust="spacing" textLength="103.0586" x="1159.7168" y="632.0839">AdaptadorSMS</text><line style="stroke:#E7E7E7;stroke-width:0.5;" x1="1010.04" x2="1379.9521" y1="640.3856" y2="640.3856"/><text fill="#FFFFFF" font-family="sans-serif" font-size="14" lengthAdjust="spacing" textLength="208.0723" x="1015.04" y="657.3807">-servicio: ServicioSMSExterno</text><line style="stroke:#E7E7E7;stroke-width:0.5;" x1="1010.04" x2="1379.9521" y1="664.6825" y2="664.6825"/><text fill="#FFFFFF" font-family="sans-serif" font-size="14" lengthAdjust="spacing" textLength="359.9121" x="1015.04" y="681.6776">+enviarSMS(mensaje: String, numero: String): void</text></g><!--class VistaRecepcionista--><g class="entity" data-entity="VistaRecepcionista" data-source-line="60" data-uid="ent0014" id="entity_VistaRecepcionista"><rect fill="#313139" height="80.5938" rx="2.5" ry="2.5" style="stroke:#E7E7E7;stroke-width:0.5;" width="273.5771" x="80.21" y="41"/><ellipse cx="146.4263" cy="57" fill="#2E5233" rx="11" ry="11" style="stroke:#E7E7E7;stroke-width:1;"/><path d="M149.3951,62.6406 Q148.8169,62.9375 148.1763,63.0781 Q147.5357,63.2344 146.8326,63.2344 Q144.3326,63.2344 143.0044,61.5938 Q141.6919,59.9375 141.6919,56.8125 Q141.6919,53.6875 143.0044,52.0313 Q144.3326,50.375 146.8326,50.375 Q147.5357,50.375 148.1763,50.5313 Q148.8326,50.6875 149.3951,50.9844 L149.3951,53.7031 Q148.7701,53.125 148.1763,52.8594 Q147.5826,52.5781 146.9576,52.5781 Q145.6138,52.5781 144.9263,53.6563 Q144.2388,54.7188 144.2388,56.8125 Q144.2388,58.9063 144.9263,59.9844 Q145.6138,61.0469 146.9576,61.0469 Q147.5826,61.0469 148.1763,60.7813 Q148.7701,60.5 149.3951,59.9219 L149.3951,62.6406 Z " fill="#FFFFFF"/><text fill="#FFFFFF" font-family="sans-serif" font-size="14" lengthAdjust="spacing" textLength="132.6445" x="166.9263" y="61.8467">VistaRecepcionista</text><line style="stroke:#E7E7E7;stroke-width:0.5;" x1="81.21" x2="352.7871" y1="73" y2="73"/><line style="stroke:#E7E7E7;stroke-width:0.5;" x1="81.21" x2="352.7871" y1="81" y2="81"/><text fill="#FFFFFF" font-family="sans-serif" font-size="14" lengthAdjust="spacing" textLength="214.2861" x="86.21" y="97.9951">+mostrarProximoTurno(): void</text><text fill="#FFFFFF" font-family="sans-serif" font-size="14" lengthAdjust="spacing" textLength="261.5771" x="86.21" y="114.292">+marcarAtendido(turno: Turno): void</text></g><!--class VistaCliente--><g class="entity" data-entity="VistaCliente" data-source-line="65" data-uid="ent0015" id="entity_VistaCliente"><rect fill="#313139" height="80.5938" rx="2.5" ry="2.5" style="stroke:#E7E7E7;stroke-width:0.5;" width="143.7627" x="389.12" y="41"/><ellipse cx="416.6255" cy="57" fill="#2E5233" rx="11" ry="11" style="stroke:#E7E7E7;stroke-width:1;"/><path d="M419.5943,62.6406 Q419.0161,62.9375 418.3755,63.0781 Q417.7349,63.2344 417.0318,63.2344 Q414.5318,63.2344 413.2036,61.5938 Q411.8911,59.9375 411.8911,56.8125 Q411.8911,53.6875 413.2036,52.0313 Q414.5318,50.375 417.0318,50.375 Q417.7349,50.375 418.3755,50.5313 Q419.0318,50.6875 419.5943,50.9844 L419.5943,53.7031 Q418.9693,53.125 418.3755,52.8594 Q417.7818,52.5781 417.1568,52.5781 Q415.813,52.5781 415.1255,53.6563 Q414.438,54.7188 414.438,56.8125 Q414.438,58.9063 415.1255,59.9844 Q415.813,61.0469 417.1568,61.0469 Q417.7818,61.0469 418.3755,60.7813 Q418.9693,60.5 419.5943,59.9219 L419.5943,62.6406 Z " fill="#FFFFFF"/><text fill="#FFFFFF" font-family="sans-serif" font-size="14" lengthAdjust="spacing" textLength="83.9727" x="433.4045" y="61.8467">VistaCliente</text><line style="stroke:#E7E7E7;stroke-width:0.5;" x1="390.12" x2="531.8827" y1="73" y2="73"/><line style="stroke:#E7E7E7;stroke-width:0.5;" x1="390.12" x2="531.8827" y1="81" y2="81"/><text fill="#FFFFFF" font-family="sans-serif" font-size="14" lengthAdjust="spacing" textLength="120.1006" x="395.12" y="97.9951">+reservar(): void</text><text fill="#FFFFFF" font-family="sans-serif" font-size="14" lengthAdjust="spacing" textLength="131.7627" x="395.12" y="114.292">+verEstado(): void</text></g><!--reverse link NotificadorSMS to AdaptadorSMS--><g class="link" data-entity-1="NotificadorSMS" data-entity-2="AdaptadorSMS" data-source-line="54" data-uid="lnk12" id="link_NotificadorSMS_AdaptadorSMS"><path d="M1315.1498,508.7941 C1289.3598,537.7141 1262.76,567.55 1233.94,599.88" fill="none" id="NotificadorSMS-backto-AdaptadorSMS" style="stroke:#E7E7E7;stroke-width:1;stroke-dasharray:7.0,7.0;"/><polygon fill="none" points="1327.13,495.36,1310.6718,504.8007,1319.6279,512.7875,1327.13,495.36" style="stroke:#E7E7E7;stroke-width:1;"/></g><!--link Cliente to Turno--><g class="link" data-entity-1="Cliente" data-entity-2="Turno" data-source-line="72" data-uid="lnk16" id="link_Cliente_Turno"><path codeLine="72" d="M591.75,326.37 C575.27,346.57 560.7428,364.3709 543.8228,385.1109" fill="none" id="Cliente-to-Turno" style="stroke:#E7E7E7;stroke-width:1;"/><polygon fill="#E7E7E7" points="540.03,389.76,548.8187,385.3149,543.1907,385.8857,542.6198,380.2577,540.03,389.76" style="stroke:#E7E7E7;stroke-width:1;"/></g><!--link GestorTurnos to Turno--><g class="link" data-entity-1="GestorTurnos" data-entity-2="Turno" data-source-line="73" data-uid="lnk17" id="link_GestorTurnos_Turno"><path codeLine="73" d="M357.04,310.18 C376.54,334.08 396.737,358.831 418.407,385.391" fill="none" id="GestorTurnos-to-Turno" style="stroke:#E7E7E7;stroke-width:1;"/><polygon fill="#E7E7E7" points="422.2,390.04,419.6098,380.5379,419.0391,386.1659,413.4111,385.5952,422.2,390.04" style="stroke:#E7E7E7;stroke-width:1;"/></g><!--link VistaRecepcionista to GestorTurnos--><g class="link" data-entity-1="VistaRecepcionista" data-entity-2="GestorTurnos" data-source-line="74" data-uid="lnk18" id="link_VistaRecepcionista_GestorTurnos"><path codeLine="74" d="M239.42,121.81 C254.64,148.65 271.899,179.0715 288.019,207.4815" fill="none" id="VistaRecepcionista-to-GestorTurnos" style="stroke:#E7E7E7;stroke-width:1;"/><polygon fill="#E7E7E7" points="290.98,212.7,290.0175,202.8983,288.5125,208.3513,283.0595,206.8463,290.98,212.7" style="stroke:#E7E7E7;stroke-width:1;"/></g><!--link VistaCliente to GestorTurnos--><g class="link" data-entity-1="VistaCliente" data-entity-2="GestorTurnos" data-source-line="75" data-uid="lnk19" id="link_VistaCliente_GestorTurnos"><path codeLine="75" d="M429.26,121.81 C407.71,148.65 382.8374,179.6122 360.0174,208.0222" fill="none" id="VistaCliente-to-GestorTurnos" style="stroke:#E7E7E7;stroke-width:1;"/><polygon fill="#E7E7E7" points="356.26,212.7,365.0146,208.1882,359.3912,208.8018,358.7776,203.1783,356.26,212.7" style="stroke:#E7E7E7;stroke-width:1;"/></g><!--link AdaptadorSMS to ServicioSMSExterno--><g class="link" data-entity-1="AdaptadorSMS" data-entity-2="ServicioSMSExterno" data-source-line="76" data-uid="lnk20" id="link_AdaptadorSMS_ServicioSMSExterno"><path codeLine="76" d="M1195,689.25 C1195,708.59 1195,724.91 1195,742.59" fill="none" id="AdaptadorSMS-to-ServicioSMSExterno" style="stroke:#E7E7E7;stroke-width:1;"/><polygon fill="#E7E7E7" points="1195,748.59,1199,739.59,1195,743.59,1191,739.59,1195,748.59" style="stroke:#E7E7E7;stroke-width:1;"/></g><!--link Cliente to NotificadorSMS--><g class="link" data-entity-1="Cliente" data-entity-2="NotificadorSMS" data-source-line="77" data-uid="lnk21" id="link_Cliente_NotificadorSMS"><path codeLine="77" d="M794.3,271.64 C897.14,281.51 1035.27,301.74 1151,343.08 C1210.47,364.32 1267.2765,399.6553 1307.0365,427.1753" fill="none" id="Cliente-to-NotificadorSMS" style="stroke:#E7E7E7;stroke-width:1;"/><polygon fill="#E7E7E7" points="1311.97,430.59,1306.8462,422.1789,1307.8587,427.7444,1302.2932,428.7569,1311.97,430.59" style="stroke:#E7E7E7;stroke-width:1;"/></g><!--link ConfiguracionSistema to AdaptadorSMS--><g class="link" data-entity-1="ConfiguracionSistema" data-entity-2="AdaptadorSMS" data-source-line="78" data-uid="lnk22" id="link_ConfiguracionSistema_AdaptadorSMS"><path codeLine="78" d="M1078.38,540.46 C1101.26,560.69 1120.6947,577.866 1140.8747,595.706" fill="none" id="ConfiguracionSistema-to-AdaptadorSMS" style="stroke:#E7E7E7;stroke-width:1;"/><polygon fill="#E7E7E7" points="1145.37,599.68,1141.2765,590.7222,1141.624,596.3683,1135.9778,596.7158,1145.37,599.68" style="stroke:#E7E7E7;stroke-width:1;"/></g><!--SRC=[fLJ1Rjim3BtxAuHUbg4Bi7CG10WIOmkmfa6TxJgmCfrojSH0KeAYG_vzaXKvTkhsieiDaKzFZ-IJx3FfFHXGGjPWxTmvGuy7Xol9kg1N55-pR0_o6NOeRfQiI1FVYB-PY7YnFHZDpLg8iJueD3mHf5qCL2YVu3iRc8WbEDoImfX0ww3qoBpvDoHDudQ7RjsmZ3vVU48q8aFqpHu5He9PiEAvGrrIX1sPIfy_PVw3Nbbttrdm9bylL_bwcpUhVFrxyt2_o8lxPZdVXkmoBXRpzIB_CMzM3MEiVb4JQeTj_QmU3Kv4uPkeTp7ciCQADVUYjmOjcYEOHarGsob7WfPOfvmxvouL1GXhUwWTc7DNEg1-TpfQl_cUSoIrPy6tO6cdqqao5ZD9LVLLGMWj9b7XEoIi8WqrlSA7k5DswfXgfIi3NfivI0-7hhaMh2lQ-Q2au4RhK86OJWlVnXeTwzaiTPwqBrjByaORsXH1YajUiwEAP9Fi3ufAOWNzCNdVhH9pcDAxt05vTqKVDdJ9x0149SYLORtpqLGWKIHuoQQuAzBWK1y9Gc2aK5luqvhkYqYNS90tzhNmtYD_lj-Vl_Y3sWlXDUfoYozkvFpdmhb_OeqVKivBsBiaSZfjbcZyW4ZjQ_GYdHqkPMpFOYO3ilwZsAx5VgwwhlhbvmOFA74VHX0MgNh5tePWDePVI75xDo_sZYzD-ygyP-_-KVr7ehtwVUOZciiBrotYatZmZq5GYZPBLEFnx7mtUxUw3OjieCYGxSApdhetsTv4GtR0DJr1L-FD1czl07QP_m40]--></g></svg>